  0
SECTION
  2
BLOCKS
  0
ENDSEC
  0
SECTION
  2
ENTITIES
  0
LINE
  8
0
 10
-38.253
 11
-38.204
 20
-14
 21
-13.686
  0
LINE
  8
0
 10
-38.204
 11
-38.059
 20
-13.686
 21
-13.403
  0
LINE
  8
0
 10
-38.059
 11
-37.835
 20
-13.403
 21
-13.178
  0
LINE
  8
0
 10
-37.835
 11
-37.551
 20
-13.178
 21
-13.034
  0
LINE
  8
0
 10
-37.551
 11
-37.238
 20
-13.034
 21
-12.984
  0
LINE
  8
0
 10
-37.238
 11
-36.924
 20
-12.984
 21
-13.034
  0
LINE
  8
0
 10
-36.924
 11
-36.64
 20
-13.034
 21
-13.178
  0
LINE
  8
0
 10
-36.64
 11
-36.416
 20
-13.178
 21
-13.403
  0
LINE
  8
0
 10
-36.416
 11
-36.271
 20
-13.403
 21
-13.686
  0
LINE
  8
0
 10
-36.271
 11
-36.221
 20
-13.686
 21
-14
  0
LINE
  8
0
 10
-36.221
 11
-36.271
 20
-14
 21
-14.314
  0
LINE
  8
0
 10
-36.271
 11
-36.416
 20
-14.314
 21
-14.597
  0
LINE
  8
0
 10
-36.416
 11
-36.64
 20
-14.597
 21
-14.822
  0
LINE
  8
0
 10
-36.64
 11
-36.924
 20
-14.822
 21
-14.966
  0
LINE
  8
0
 10
-36.924
 11
-37.238
 20
-14.966
 21
-15.016
  0
LINE
  8
0
 10
-37.238
 11
-37.551
 20
-15.016
 21
-14.966
  0
LINE
  8
0
 10
-37.551
 11
-37.835
 20
-14.966
 21
-14.822
  0
LINE
  8
0
 10
-37.835
 11
-38.059
 20
-14.822
 21
-14.597
  0
LINE
  8
0
 10
-38.059
 11
-38.204
 20
-14.597
 21
-14.314
  0
LINE
  8
0
 10
-38.204
 11
-38.253
 20
-14.314
 21
-14
  0
LINE
  8
0
 10
-38.253
 11
-38.204
 20
14
 21
14.314
  0
LINE
  8
0
 10
-38.204
 11
-38.059
 20
14.314
 21
14.597
  0
LINE
  8
0
 10
-38.059
 11
-37.835
 20
14.597
 21
14.822
  0
LINE
  8
0
 10
-37.835
 11
-37.551
 20
14.822
 21
14.966
  0
LINE
  8
0
 10
-37.551
 11
-37.237
 20
14.966
 21
15.016
  0
LINE
  8
0
 10
-37.237
 11
-36.924
 20
15.016
 21
14.966
  0
LINE
  8
0
 10
-36.924
 11
-36.64
 20
14.966
 21
14.822
  0
LINE
  8
0
 10
-36.64
 11
-36.416
 20
14.822
 21
14.597
  0
LINE
  8
0
 10
-36.416
 11
-36.271
 20
14.597
 21
14.314
  0
LINE
  8
0
 10
-36.271
 11
-36.221
 20
14.314
 21
14
  0
LINE
  8
0
 10
-36.221
 11
-36.271
 20
14
 21
13.686
  0
LINE
  8
0
 10
-36.271
 11
-36.416
 20
13.686
 21
13.403
  0
LINE
  8
0
 10
-36.416
 11
-36.64
 20
13.403
 21
13.178
  0
LINE
  8
0
 10
-36.64
 11
-36.924
 20
13.178
 21
13.034
  0
LINE
  8
0
 10
-36.924
 11
-37.237
 20
13.034
 21
12.984
  0
LINE
  8
0
 10
-37.237
 11
-37.551
 20
12.984
 21
13.034
  0
LINE
  8
0
 10
-37.551
 11
-37.835
 20
13.034
 21
13.178
  0
LINE
  8
0
 10
-37.835
 11
-38.059
 20
13.178
 21
13.403
  0
LINE
  8
0
 10
-38.059
 11
-38.204
 20
13.403
 21
13.686
  0
LINE
  8
0
 10
-38.204
 11
-38.253
 20
13.686
 21
14
  0
LINE
  8
0
 10
-40.987
 11
-40.987
 20
-20
 21
20
  0
LINE
  8
0
 10
-40.987
 11
-25.987
 20
20
 21
20
  0
LINE
  8
0
 10
-25.987
 11
-25.987
 20
20
 21
5.9
  0
LINE
  8
0
 10
-25.987
 11
-5.9
 20
5.9
 21
5.9
  0
LINE
  8
0
 10
-5.9
 11
-5.9
 20
5.9
 21
25.987
  0
LINE
  8
0
 10
-5.9
 11
-20
 20
25.987
 21
25.987
  0
LINE
  8
0
 10
-20
 11
-20
 20
25.987
 21
40.987
  0
LINE
  8
0
 10
-20
 11
20
 20
40.987
 21
40.987
  0
LINE
  8
0
 10
20
 11
20
 20
40.987
 21
25.987
  0
LINE
  8
0
 10
20
 11
5.9
 20
25.987
 21
25.987
  0
LINE
  8
0
 10
5.9
 11
5.9
 20
25.987
 21
5.9
  0
LINE
  8
0
 10
5.9
 11
25.987
 20
5.9
 21
5.9
  0
LINE
  8
0
 10
25.987
 11
25.987
 20
5.9
 21
20
  0
LINE
  8
0
 10
25.987
 11
40.987
 20
20
 21
20
  0
LINE
  8
0
 10
40.987
 11
40.987
 20
20
 21
-20
  0
LINE
  8
0
 10
40.987
 11
25.987
 20
-20
 21
-20
  0
LINE
  8
0
 10
25.987
 11
25.987
 20
-20
 21
-5.9
  0
LINE
  8
0
 10
25.987
 11
5.9
 20
-5.9
 21
-5.9
  0
LINE
  8
0
 10
5.9
 11
5.9
 20
-5.9
 21
-25.987
  0
LINE
  8
0
 10
5.9
 11
20
 20
-25.987
 21
-25.987
  0
LINE
  8
0
 10
20
 11
20
 20
-25.987
 21
-40.987
  0
LINE
  8
0
 10
20
 11
-20
 20
-40.987
 21
-40.987
  0
LINE
  8
0
 10
-20
 11
-20
 20
-40.987
 21
-25.987
  0
LINE
  8
0
 10
-20
 11
-5.9
 20
-25.987
 21
-25.987
  0
LINE
  8
0
 10
-5.9
 11
-5.9
 20
-25.987
 21
-5.9
  0
LINE
  8
0
 10
-5.9
 11
-25.987
 20
-5.9
 21
-5.9
  0
LINE
  8
0
 10
-25.987
 11
-25.987
 20
-5.9
 21
-20
  0
LINE
  8
0
 10
-25.987
 11
-40.987
 20
-20
 21
-20
  0
LINE
  8
0
 10
-30.753
 11
-30.704
 20
-14
 21
-13.686
  0
LINE
  8
0
 10
-30.704
 11
-30.559
 20
-13.686
 21
-13.403
  0
LINE
  8
0
 10
-30.559
 11
-30.335
 20
-13.403
 21
-13.178
  0
LINE
  8
0
 10
-30.335
 11
-30.051
 20
-13.178
 21
-13.034
  0
LINE
  8
0
 10
-30.051
 11
-29.737
 20
-13.034
 21
-12.984
  0
LINE
  8
0
 10
-29.737
 11
-29.424
 20
-12.984
 21
-13.034
  0
LINE
  8
0
 10
-29.424
 11
-29.14
 20
-13.034
 21
-13.178
  0
LINE
  8
0
 10
-29.14
 11
-28.916
 20
-13.178
 21
-13.403
  0
LINE
  8
0
 10
-28.916
 11
-28.771
 20
-13.403
 21
-13.686
  0
LINE
  8
0
 10
-28.771
 11
-28.721
 20
-13.686
 21
-14
  0
LINE
  8
0
 10
-28.721
 11
-28.771
 20
-14
 21
-14.314
  0
LINE
  8
0
 10
-28.771
 11
-28.916
 20
-14.314
 21
-14.597
  0
LINE
  8
0
 10
-28.916
 11
-29.14
 20
-14.597
 21
-14.822
  0
LINE
  8
0
 10
-29.14
 11
-29.424
 20
-14.822
 21
-14.966
  0
LINE
  8
0
 10
-29.424
 11
-29.737
 20
-14.966
 21
-15.016
  0
LINE
  8
0
 10
-29.737
 11
-30.051
 20
-15.016
 21
-14.966
  0
LINE
  8
0
 10
-30.051
 11
-30.335
 20
-14.966
 21
-14.822
  0
LINE
  8
0
 10
-30.335
 11
-30.559
 20
-14.822
 21
-14.597
  0
LINE
  8
0
 10
-30.559
 11
-30.704
 20
-14.597
 21
-14.314
  0
LINE
  8
0
 10
-30.704
 11
-30.753
 20
-14.314
 21
-14
  0
LINE
  8
0
 10
-30.753
 11
-30.704
 20
14
 21
14.314
  0
LINE
  8
0
 10
-30.704
 11
-30.559
 20
14.314
 21
14.597
  0
LINE
  8
0
 10
-30.559
 11
-30.335
 20
14.597
 21
14.822
  0
LINE
  8
0
 10
-30.335
 11
-30.051
 20
14.822
 21
14.966
  0
LINE
  8
0
 10
-30.051
 11
-29.737
 20
14.966
 21
15.016
  0
LINE
  8
0
 10
-29.737
 11
-29.424
 20
15.016
 21
14.966
  0
LINE
  8
0
 10
-29.424
 11
-29.14
 20
14.966
 21
14.822
  0
LINE
  8
0
 10
-29.14
 11
-28.916
 20
14.822
 21
14.597
  0
LINE
  8
0
 10
-28.916
 11
-28.771
 20
14.597
 21
14.314
  0
LINE
  8
0
 10
-28.771
 11
-28.721
 20
14.314
 21
14
  0
LINE
  8
0
 10
-28.721
 11
-28.771
 20
14
 21
13.686
  0
LINE
  8
0
 10
-28.771
 11
-28.916
 20
13.686
 21
13.403
  0
LINE
  8
0
 10
-28.916
 11
-29.14
 20
13.403
 21
13.178
  0
LINE
  8
0
 10
-29.14
 11
-29.424
 20
13.178
 21
13.034
  0
LINE
  8
0
 10
-29.424
 11
-29.737
 20
13.034
 21
12.984
  0
LINE
  8
0
 10
-29.737
 11
-30.051
 20
12.984
 21
13.034
  0
LINE
  8
0
 10
-30.051
 11
-30.335
 20
13.034
 21
13.178
  0
LINE
  8
0
 10
-30.335
 11
-30.559
 20
13.178
 21
13.403
  0
LINE
  8
0
 10
-30.559
 11
-30.704
 20
13.403
 21
13.686
  0
LINE
  8
0
 10
-30.704
 11
-30.753
 20
13.686
 21
14
  0
LINE
  8
0
 10
-15.016
 11
-14.966
 20
-37.237
 21
-36.924
  0
LINE
  8
0
 10
-14.966
 11
-14.822
 20
-36.924
 21
-36.64
  0
LINE
  8
0
 10
-14.822
 11
-14.597
 20
-36.64
 21
-36.416
  0
LINE
  8
0
 10
-14.597
 11
-14.314
 20
-36.416
 21
-36.271
  0
LINE
  8
0
 10
-14.314
 11
-14
 20
-36.271
 21
-36.221
  0
LINE
  8
0
 10
-14
 11
-13.686
 20
-36.221
 21
-36.271
  0
LINE
  8
0
 10
-13.686
 11
-13.403
 20
-36.271
 21
-36.416
  0
LINE
  8
0
 10
-13.403
 11
-13.178
 20
-36.416
 21
-36.64
  0
LINE
  8
0
 10
-13.178
 11
-13.034
 20
-36.64
 21
-36.924
  0
LINE
  8
0
 10
-13.034
 11
-12.984
 20
-36.924
 21
-37.237
  0
LINE
  8
0
 10
-12.984
 11
-13.034
 20
-37.237
 21
-37.551
  0
LINE
  8
0
 10
-13.034
 11
-13.178
 20
-37.551
 21
-37.835
  0
LINE
  8
0
 10
-13.178
 11
-13.403
 20
-37.835
 21
-38.059
  0
LINE
  8
0
 10
-13.403
 11
-13.686
 20
-38.059
 21
-38.204
  0
LINE
  8
0
 10
-13.686
 11
-14
 20
-38.204
 21
-38.253
  0
LINE
  8
0
 10
-14
 11
-14.314
 20
-38.253
 21
-38.204
  0
LINE
  8
0
 10
-14.314
 11
-14.597
 20
-38.204
 21
-38.059
  0
LINE
  8
0
 10
-14.597
 11
-14.822
 20
-38.059
 21
-37.835
  0
LINE
  8
0
 10
-14.822
 11
-14.966
 20
-37.835
 21
-37.551
  0
LINE
  8
0
 10
-14.966
 11
-15.016
 20
-37.551
 21
-37.237
  0
LINE
  8
0
 10
-15.016
 11
-14.966
 20
-29.737
 21
-29.424
  0
LINE
  8
0
 10
-14.966
 11
-14.822
 20
-29.424
 21
-29.14
  0
LINE
  8
0
 10
-14.822
 11
-14.597
 20
-29.14
 21
-28.916
  0
LINE
  8
0
 10
-14.597
 11
-14.314
 20
-28.916
 21
-28.771
  0
LINE
  8
0
 10
-14.314
 11
-14
 20
-28.771
 21
-28.721
  0
LINE
  8
0
 10
-14
 11
-13.686
 20
-28.721
 21
-28.771
  0
LINE
  8
0
 10
-13.686
 11
-13.403
 20
-28.771
 21
-28.916
  0
LINE
  8
0
 10
-13.403
 11
-13.178
 20
-28.916
 21
-29.14
  0
LINE
  8
0
 10
-13.178
 11
-13.034
 20
-29.14
 21
-29.424
  0
LINE
  8
0
 10
-13.034
 11
-12.984
 20
-29.424
 21
-29.737
  0
LINE
  8
0
 10
-12.984
 11
-13.034
 20
-29.737
 21
-30.051
  0
LINE
  8
0
 10
-13.034
 11
-13.178
 20
-30.051
 21
-30.335
  0
LINE
  8
0
 10
-13.178
 11
-13.403
 20
-30.335
 21
-30.559
  0
LINE
  8
0
 10
-13.403
 11
-13.686
 20
-30.559
 21
-30.704
  0
LINE
  8
0
 10
-13.686
 11
-14
 20
-30.704
 21
-30.753
  0
LINE
  8
0
 10
-14
 11
-14.314
 20
-30.753
 21
-30.704
  0
LINE
  8
0
 10
-14.314
 11
-14.597
 20
-30.704
 21
-30.559
  0
LINE
  8
0
 10
-14.597
 11
-14.822
 20
-30.559
 21
-30.335
  0
LINE
  8
0
 10
-14.822
 11
-14.966
 20
-30.335
 21
-30.051
  0
LINE
  8
0
 10
-14.966
 11
-15.016
 20
-30.051
 21
-29.737
  0
LINE
  8
0
 10
-15.016
 11
-14.966
 20
29.737
 21
30.051
  0
LINE
  8
0
 10
-14.966
 11
-14.822
 20
30.051
 21
30.335
  0
LINE
  8
0
 10
-14.822
 11
-14.597
 20
30.335
 21
30.559
  0
LINE
  8
0
 10
-14.597
 11
-14.314
 20
30.559
 21
30.704
  0
LINE
  8
0
 10
-14.314
 11
-14
 20
30.704
 21
30.753
  0
LINE
  8
0
 10
-14
 11
-13.686
 20
30.753
 21
30.704
  0
LINE
  8
0
 10
-13.686
 11
-13.403
 20
30.704
 21
30.559
  0
LINE
  8
0
 10
-13.403
 11
-13.178
 20
30.559
 21
30.335
  0
LINE
  8
0
 10
-13.178
 11
-13.034
 20
30.335
 21
30.051
  0
LINE
  8
0
 10
-13.034
 11
-12.984
 20
30.051
 21
29.737
  0
LINE
  8
0
 10
-12.984
 11
-13.034
 20
29.737
 21
29.424
  0
LINE
  8
0
 10
-13.034
 11
-13.178
 20
29.424
 21
29.14
  0
LINE
  8
0
 10
-13.178
 11
-13.403
 20
29.14
 21
28.916
  0
LINE
  8
0
 10
-13.403
 11
-13.686
 20
28.916
 21
28.771
  0
LINE
  8
0
 10
-13.686
 11
-14
 20
28.771
 21
28.721
  0
LINE
  8
0
 10
-14
 11
-14.314
 20
28.721
 21
28.771
  0
LINE
  8
0
 10
-14.314
 11
-14.597
 20
28.771
 21
28.916
  0
LINE
  8
0
 10
-14.597
 11
-14.822
 20
28.916
 21
29.14
  0
LINE
  8
0
 10
-14.822
 11
-14.966
 20
29.14
 21
29.424
  0
LINE
  8
0
 10
-14.966
 11
-15.016
 20
29.424
 21
29.737
  0
LINE
  8
0
 10
-15.016
 11
-14.966
 20
37.238
 21
37.551
  0
LINE
  8
0
 10
-14.966
 11
-14.822
 20
37.551
 21
37.835
  0
LINE
  8
0
 10
-14.822
 11
-14.597
 20
37.835
 21
38.059
  0
LINE
  8
0
 10
-14.597
 11
-14.314
 20
38.059
 21
38.204
  0
LINE
  8
0
 10
-14.314
 11
-14
 20
38.204
 21
38.253
  0
LINE
  8
0
 10
-14
 11
-13.686
 20
38.253
 21
38.204
  0
LINE
  8
0
 10
-13.686
 11
-13.403
 20
38.204
 21
38.059
  0
LINE
  8
0
 10
-13.403
 11
-13.178
 20
38.059
 21
37.835
  0
LINE
  8
0
 10
-13.178
 11
-13.034
 20
37.835
 21
37.551
  0
LINE
  8
0
 10
-13.034
 11
-12.984
 20
37.551
 21
37.238
  0
LINE
  8
0
 10
-12.984
 11
-13.034
 20
37.238
 21
36.924
  0
LINE
  8
0
 10
-13.034
 11
-13.178
 20
36.924
 21
36.64
  0
LINE
  8
0
 10
-13.178
 11
-13.403
 20
36.64
 21
36.416
  0
LINE
  8
0
 10
-13.403
 11
-13.686
 20
36.416
 21
36.271
  0
LINE
  8
0
 10
-13.686
 11
-14
 20
36.271
 21
36.221
  0
LINE
  8
0
 10
-14
 11
-14.314
 20
36.221
 21
36.271
  0
LINE
  8
0
 10
-14.314
 11
-14.597
 20
36.271
 21
36.416
  0
LINE
  8
0
 10
-14.597
 11
-14.822
 20
36.416
 21
36.64
  0
LINE
  8
0
 10
-14.822
 11
-14.966
 20
36.64
 21
36.924
  0
LINE
  8
0
 10
-14.966
 11
-15.016
 20
36.924
 21
37.238
  0
LINE
  8
0
 10
12.984
 11
13.034
 20
-37.238
 21
-36.924
  0
LINE
  8
0
 10
13.034
 11
13.178
 20
-36.924
 21
-36.64
  0
LINE
  8
0
 10
13.178
 11
13.403
 20
-36.64
 21
-36.416
  0
LINE
  8
0
 10
13.403
 11
13.686
 20
-36.416
 21
-36.271
  0
LINE
  8
0
 10
13.686
 11
14
 20
-36.271
 21
-36.221
  0
LINE
  8
0
 10
14
 11
14.314
 20
-36.221
 21
-36.271
  0
LINE
  8
0
 10
14.314
 11
14.597
 20
-36.271
 21
-36.416
  0
LINE
  8
0
 10
14.597
 11
14.822
 20
-36.416
 21
-36.64
  0
LINE
  8
0
 10
14.822
 11
14.966
 20
-36.64
 21
-36.924
  0
LINE
  8
0
 10
14.966
 11
15.016
 20
-36.924
 21
-37.238
  0
LINE
  8
0
 10
15.016
 11
14.966
 20
-37.238
 21
-37.551
  0
LINE
  8
0
 10
14.966
 11
14.822
 20
-37.551
 21
-37.835
  0
LINE
  8
0
 10
14.822
 11
14.597
 20
-37.835
 21
-38.059
  0
LINE
  8
0
 10
14.597
 11
14.314
 20
-38.059
 21
-38.204
  0
LINE
  8
0
 10
14.314
 11
14
 20
-38.204
 21
-38.253
  0
LINE
  8
0
 10
14
 11
13.686
 20
-38.253
 21
-38.204
  0
LINE
  8
0
 10
13.686
 11
13.403
 20
-38.204
 21
-38.059
  0
LINE
  8
0
 10
13.403
 11
13.178
 20
-38.059
 21
-37.835
  0
LINE
  8
0
 10
13.178
 11
13.034
 20
-37.835
 21
-37.551
  0
LINE
  8
0
 10
13.034
 11
12.984
 20
-37.551
 21
-37.238
  0
LINE
  8
0
 10
12.984
 11
13.034
 20
-29.737
 21
-29.424
  0
LINE
  8
0
 10
13.034
 11
13.178
 20
-29.424
 21
-29.14
  0
LINE
  8
0
 10
13.178
 11
13.403
 20
-29.14
 21
-28.916
  0
LINE
  8
0
 10
13.403
 11
13.686
 20
-28.916
 21
-28.771
  0
LINE
  8
0
 10
13.686
 11
14
 20
-28.771
 21
-28.721
  0
LINE
  8
0
 10
14
 11
14.314
 20
-28.721
 21
-28.771
  0
LINE
  8
0
 10
14.314
 11
14.597
 20
-28.771
 21
-28.916
  0
LINE
  8
0
 10
14.597
 11
14.822
 20
-28.916
 21
-29.14
  0
LINE
  8
0
 10
14.822
 11
14.966
 20
-29.14
 21
-29.424
  0
LINE
  8
0
 10
14.966
 11
15.016
 20
-29.424
 21
-29.737
  0
LINE
  8
0
 10
15.016
 11
14.966
 20
-29.737
 21
-30.051
  0
LINE
  8
0
 10
14.966
 11
14.822
 20
-30.051
 21
-30.335
  0
LINE
  8
0
 10
14.822
 11
14.597
 20
-30.335
 21
-30.559
  0
LINE
  8
0
 10
14.597
 11
14.314
 20
-30.559
 21
-30.704
  0
LINE
  8
0
 10
14.314
 11
14
 20
-30.704
 21
-30.753
  0
LINE
  8
0
 10
14
 11
13.686
 20
-30.753
 21
-30.704
  0
LINE
  8
0
 10
13.686
 11
13.403
 20
-30.704
 21
-30.559
  0
LINE
  8
0
 10
13.403
 11
13.178
 20
-30.559
 21
-30.335
  0
LINE
  8
0
 10
13.178
 11
13.034
 20
-30.335
 21
-30.051
  0
LINE
  8
0
 10
13.034
 11
12.984
 20
-30.051
 21
-29.737
  0
LINE
  8
0
 10
12.984
 11
13.034
 20
29.737
 21
30.051
  0
LINE
  8
0
 10
13.034
 11
13.178
 20
30.051
 21
30.335
  0
LINE
  8
0
 10
13.178
 11
13.403
 20
30.335
 21
30.559
  0
LINE
  8
0
 10
13.403
 11
13.686
 20
30.559
 21
30.704
  0
LINE
  8
0
 10
13.686
 11
14
 20
30.704
 21
30.753
  0
LINE
  8
0
 10
14
 11
14.314
 20
30.753
 21
30.704
  0
LINE
  8
0
 10
14.314
 11
14.597
 20
30.704
 21
30.559
  0
LINE
  8
0
 10
14.597
 11
14.822
 20
30.559
 21
30.335
  0
LINE
  8
0
 10
14.822
 11
14.966
 20
30.335
 21
30.051
  0
LINE
  8
0
 10
14.966
 11
15.016
 20
30.051
 21
29.737
  0
LINE
  8
0
 10
15.016
 11
14.966
 20
29.737
 21
29.424
  0
LINE
  8
0
 10
14.966
 11
14.822
 20
29.424
 21
29.14
  0
LINE
  8
0
 10
14.822
 11
14.597
 20
29.14
 21
28.916
  0
LINE
  8
0
 10
14.597
 11
14.314
 20
28.916
 21
28.771
  0
LINE
  8
0
 10
14.314
 11
14
 20
28.771
 21
28.721
  0
LINE
  8
0
 10
14
 11
13.686
 20
28.721
 21
28.771
  0
LINE
  8
0
 10
13.686
 11
13.403
 20
28.771
 21
28.916
  0
LINE
  8
0
 10
13.403
 11
13.178
 20
28.916
 21
29.14
  0
LINE
  8
0
 10
13.178
 11
13.034
 20
29.14
 21
29.424
  0
LINE
  8
0
 10
13.034
 11
12.984
 20
29.424
 21
29.737
  0
LINE
  8
0
 10
12.984
 11
13.034
 20
37.237
 21
37.551
  0
LINE
  8
0
 10
13.034
 11
13.178
 20
37.551
 21
37.835
  0
LINE
  8
0
 10
13.178
 11
13.403
 20
37.835
 21
38.059
  0
LINE
  8
0
 10
13.403
 11
13.686
 20
38.059
 21
38.204
  0
LINE
  8
0
 10
13.686
 11
14
 20
38.204
 21
38.253
  0
LINE
  8
0
 10
14
 11
14.314
 20
38.253
 21
38.204
  0
LINE
  8
0
 10
14.314
 11
14.597
 20
38.204
 21
38.059
  0
LINE
  8
0
 10
14.597
 11
14.822
 20
38.059
 21
37.835
  0
LINE
  8
0
 10
14.822
 11
14.966
 20
37.835
 21
37.551
  0
LINE
  8
0
 10
14.966
 11
15.016
 20
37.551
 21
37.237
  0
LINE
  8
0
 10
15.016
 11
14.966
 20
37.237
 21
36.924
  0
LINE
  8
0
 10
14.966
 11
14.822
 20
36.924
 21
36.64
  0
LINE
  8
0
 10
14.822
 11
14.597
 20
36.64
 21
36.416
  0
LINE
  8
0
 10
14.597
 11
14.314
 20
36.416
 21
36.271
  0
LINE
  8
0
 10
14.314
 11
14
 20
36.271
 21
36.221
  0
LINE
  8
0
 10
14
 11
13.686
 20
36.221
 21
36.271
  0
LINE
  8
0
 10
13.686
 11
13.403
 20
36.271
 21
36.416
  0
LINE
  8
0
 10
13.403
 11
13.178
 20
36.416
 21
36.64
  0
LINE
  8
0
 10
13.178
 11
13.034
 20
36.64
 21
36.924
  0
LINE
  8
0
 10
13.034
 11
12.984
 20
36.924
 21
37.237
  0
LINE
  8
0
 10
28.721
 11
28.771
 20
-14
 21
-13.686
  0
LINE
  8
0
 10
28.771
 11
28.916
 20
-13.686
 21
-13.403
  0
LINE
  8
0
 10
28.916
 11
29.14
 20
-13.403
 21
-13.178
  0
LINE
  8
0
 10
29.14
 11
29.424
 20
-13.178
 21
-13.034
  0
LINE
  8
0
 10
29.424
 11
29.737
 20
-13.034
 21
-12.984
  0
LINE
  8
0
 10
29.737
 11
30.051
 20
-12.984
 21
-13.034
  0
LINE
  8
0
 10
30.051
 11
30.335
 20
-13.034
 21
-13.178
  0
LINE
  8
0
 10
30.335
 11
30.559
 20
-13.178
 21
-13.403
  0
LINE
  8
0
 10
30.559
 11
30.704
 20
-13.403
 21
-13.686
  0
LINE
  8
0
 10
30.704
 11
30.753
 20
-13.686
 21
-14
  0
LINE
  8
0
 10
30.753
 11
30.704
 20
-14
 21
-14.314
  0
LINE
  8
0
 10
30.704
 11
30.559
 20
-14.314
 21
-14.597
  0
LINE
  8
0
 10
30.559
 11
30.335
 20
-14.597
 21
-14.822
  0
LINE
  8
0
 10
30.335
 11
30.051
 20
-14.822
 21
-14.966
  0
LINE
  8
0
 10
30.051
 11
29.737
 20
-14.966
 21
-15.016
  0
LINE
  8
0
 10
29.737
 11
29.424
 20
-15.016
 21
-14.966
  0
LINE
  8
0
 10
29.424
 11
29.14
 20
-14.966
 21
-14.822
  0
LINE
  8
0
 10
29.14
 11
28.916
 20
-14.822
 21
-14.597
  0
LINE
  8
0
 10
28.916
 11
28.771
 20
-14.597
 21
-14.314
  0
LINE
  8
0
 10
28.771
 11
28.721
 20
-14.314
 21
-14
  0
LINE
  8
0
 10
28.721
 11
28.771
 20
14
 21
14.314
  0
LINE
  8
0
 10
28.771
 11
28.916
 20
14.314
 21
14.597
  0
LINE
  8
0
 10
28.916
 11
29.14
 20
14.597
 21
14.822
  0
LINE
  8
0
 10
29.14
 11
29.424
 20
14.822
 21
14.966
  0
LINE
  8
0
 10
29.424
 11
29.737
 20
14.966
 21
15.016
  0
LINE
  8
0
 10
29.737
 11
30.051
 20
15.016
 21
14.966
  0
LINE
  8
0
 10
30.051
 11
30.335
 20
14.966
 21
14.822
  0
LINE
  8
0
 10
30.335
 11
30.559
 20
14.822
 21
14.597
  0
LINE
  8
0
 10
30.559
 11
30.704
 20
14.597
 21
14.314
  0
LINE
  8
0
 10
30.704
 11
30.753
 20
14.314
 21
14
  0
LINE
  8
0
 10
30.753
 11
30.704
 20
14
 21
13.686
  0
LINE
  8
0
 10
30.704
 11
30.559
 20
13.686
 21
13.403
  0
LINE
  8
0
 10
30.559
 11
30.335
 20
13.403
 21
13.178
  0
LINE
  8
0
 10
30.335
 11
30.051
 20
13.178
 21
13.034
  0
LINE
  8
0
 10
30.051
 11
29.737
 20
13.034
 21
12.984
  0
LINE
  8
0
 10
29.737
 11
29.424
 20
12.984
 21
13.034
  0
LINE
  8
0
 10
29.424
 11
29.14
 20
13.034
 21
13.178
  0
LINE
  8
0
 10
29.14
 11
28.916
 20
13.178
 21
13.403
  0
LINE
  8
0
 10
28.916
 11
28.771
 20
13.403
 21
13.686
  0
LINE
  8
0
 10
28.771
 11
28.721
 20
13.686
 21
14
  0
LINE
  8
0
 10
36.221
 11
36.271
 20
-14
 21
-13.686
  0
LINE
  8
0
 10
36.271
 11
36.416
 20
-13.686
 21
-13.403
  0
LINE
  8
0
 10
36.416
 11
36.64
 20
-13.403
 21
-13.178
  0
LINE
  8
0
 10
36.64
 11
36.924
 20
-13.178
 21
-13.034
  0
LINE
  8
0
 10
36.924
 11
37.237
 20
-13.034
 21
-12.984
  0
LINE
  8
0
 10
37.237
 11
37.551
 20
-12.984
 21
-13.034
  0
LINE
  8
0
 10
37.551
 11
37.835
 20
-13.034
 21
-13.178
  0
LINE
  8
0
 10
37.835
 11
38.059
 20
-13.178
 21
-13.403
  0
LINE
  8
0
 10
38.059
 11
38.204
 20
-13.403
 21
-13.686
  0
LINE
  8
0
 10
38.204
 11
38.253
 20
-13.686
 21
-14
  0
LINE
  8
0
 10
38.253
 11
38.204
 20
-14
 21
-14.314
  0
LINE
  8
0
 10
38.204
 11
38.059
 20
-14.314
 21
-14.597
  0
LINE
  8
0
 10
38.059
 11
37.835
 20
-14.597
 21
-14.822
  0
LINE
  8
0
 10
37.835
 11
37.551
 20
-14.822
 21
-14.966
  0
LINE
  8
0
 10
37.551
 11
37.237
 20
-14.966
 21
-15.016
  0
LINE
  8
0
 10
37.237
 11
36.924
 20
-15.016
 21
-14.966
  0
LINE
  8
0
 10
36.924
 11
36.64
 20
-14.966
 21
-14.822
  0
LINE
  8
0
 10
36.64
 11
36.416
 20
-14.822
 21
-14.597
  0
LINE
  8
0
 10
36.416
 11
36.271
 20
-14.597
 21
-14.314
  0
LINE
  8
0
 10
36.271
 11
36.221
 20
-14.314
 21
-14
  0
LINE
  8
0
 10
36.221
 11
36.271
 20
14
 21
14.314
  0
LINE
  8
0
 10
36.271
 11
36.416
 20
14.314
 21
14.597
  0
LINE
  8
0
 10
36.416
 11
36.64
 20
14.597
 21
14.822
  0
LINE
  8
0
 10
36.64
 11
36.924
 20
14.822
 21
14.966
  0
LINE
  8
0
 10
36.924
 11
37.238
 20
14.966
 21
15.016
  0
LINE
  8
0
 10
37.238
 11
37.551
 20
15.016
 21
14.966
  0
LINE
  8
0
 10
37.551
 11
37.835
 20
14.966
 21
14.822
  0
LINE
  8
0
 10
37.835
 11
38.059
 20
14.822
 21
14.597
  0
LINE
  8
0
 10
38.059
 11
38.204
 20
14.597
 21
14.314
  0
LINE
  8
0
 10
38.204
 11
38.253
 20
14.314
 21
14
  0
LINE
  8
0
 10
38.253
 11
38.204
 20
14
 21
13.686
  0
LINE
  8
0
 10
38.204
 11
38.059
 20
13.686
 21
13.403
  0
LINE
  8
0
 10
38.059
 11
37.835
 20
13.403
 21
13.178
  0
LINE
  8
0
 10
37.835
 11
37.551
 20
13.178
 21
13.034
  0
LINE
  8
0
 10
37.551
 11
37.238
 20
13.034
 21
12.984
  0
LINE
  8
0
 10
37.238
 11
36.924
 20
12.984
 21
13.034
  0
LINE
  8
0
 10
36.924
 11
36.64
 20
13.034
 21
13.178
  0
LINE
  8
0
 10
36.64
 11
36.416
 20
13.178
 21
13.403
  0
LINE
  8
0
 10
36.416
 11
36.271
 20
13.403
 21
13.686
  0
LINE
  8
0
 10
36.271
 11
36.221
 20
13.686
 21
14
  0
ENDSEC
  0
SECTION
  2
OBJECTS
  0
DICTIONARY
  0
ENDSEC
  0
EOF
