solid OpenSCAD_Model
  facet normal 0 -1 0
    outer loop
      vertex -7.5 -20 -0.5
      vertex 7.5 -20 0.5
      vertex -7.5 -20 0.5
    endloop
  endfacet
  facet normal 0 -1 -0
    outer loop
      vertex 7.5 -20 0.5
      vertex -7.5 -20 -0.5
      vertex 7.5 -20 -0.5
    endloop
  endfacet
  facet normal 0 0 1
    outer loop
      vertex 3.15281 13.178 0.5
      vertex -3.15281 13.178 0.5
      vertex 3.43604 13.0337 0.5
    endloop
  endfacet
  facet normal 0 0 1
    outer loop
      vertex 3.43604 -13.0337 0.5
      vertex -2.78373 -13.686 0.5
      vertex -2.734 -14 0.5
    endloop
  endfacet
  facet normal 0 0 1
    outer loop
      vertex -3.43604 13.0337 0.5
      vertex 3.43604 13.0337 0.5
      vertex -3.15281 13.178 0.5
    endloop
  endfacet
  facet normal 0 0 1
    outer loop
      vertex 3.43604 -13.0337 0.5
      vertex -2.92804 -13.4028 0.5
      vertex -2.78373 -13.686 0.5
    endloop
  endfacet
  facet normal 0 0 1
    outer loop
      vertex 3.43604 13.0337 0.5
      vertex -3.43604 13.0337 0.5
      vertex 3.43604 -13.0337 0.5
    endloop
  endfacet
  facet normal 0 0 1
    outer loop
      vertex 3.43604 -13.0337 0.5
      vertex -3.15281 -13.178 0.5
      vertex -2.92804 -13.4028 0.5
    endloop
  endfacet
  facet normal 0 0 1
    outer loop
      vertex -3.43604 -13.0337 0.5
      vertex 3.43604 -13.0337 0.5
      vertex -3.43604 13.0337 0.5
    endloop
  endfacet
  facet normal 0 0 1
    outer loop
      vertex 3.43604 -13.0337 0.5
      vertex -3.43604 -13.0337 0.5
      vertex -3.15281 -13.178 0.5
    endloop
  endfacet
  facet normal -0 0 1
    outer loop
      vertex -3.75 12.984 0.5
      vertex -3.43604 -13.0337 0.5
      vertex -3.43604 13.0337 0.5
    endloop
  endfacet
  facet normal 0 0 1
    outer loop
      vertex -3.75 12.984 0.5
      vertex -3.75 -12.984 0.5
      vertex -3.43604 -13.0337 0.5
    endloop
  endfacet
  facet normal 0 0 1
    outer loop
      vertex -4.06396 13.0337 0.5
      vertex -3.75 -12.984 0.5
      vertex -3.75 12.984 0.5
    endloop
  endfacet
  facet normal 0 0 1
    outer loop
      vertex -4.06396 13.0337 0.5
      vertex -4.06396 -13.0337 0.5
      vertex -3.75 -12.984 0.5
    endloop
  endfacet
  facet normal 0 0 1
    outer loop
      vertex -4.34719 13.178 0.5
      vertex -4.06396 -13.0337 0.5
      vertex -4.06396 13.0337 0.5
    endloop
  endfacet
  facet normal 0 0 1
    outer loop
      vertex -4.34719 13.178 0.5
      vertex -4.34719 -13.178 0.5
      vertex -4.06396 -13.0337 0.5
    endloop
  endfacet
  facet normal 0 0 1
    outer loop
      vertex -4.57196 13.4028 0.5
      vertex -4.34719 -13.178 0.5
      vertex -4.34719 13.178 0.5
    endloop
  endfacet
  facet normal 0 0 1
    outer loop
      vertex -4.57196 13.4028 0.5
      vertex -4.57196 -13.4028 0.5
      vertex -4.34719 -13.178 0.5
    endloop
  endfacet
  facet normal 0 0 1
    outer loop
      vertex -4.71627 13.686 0.5
      vertex -4.57196 -13.4028 0.5
      vertex -4.57196 13.4028 0.5
    endloop
  endfacet
  facet normal 0 0 1
    outer loop
      vertex -4.71627 13.686 0.5
      vertex -4.71627 -13.686 0.5
      vertex -4.57196 -13.4028 0.5
    endloop
  endfacet
  facet normal 0 0 1
    outer loop
      vertex -7.5 20 0.5
      vertex -4.71627 13.686 0.5
      vertex -4.766 14 0.5
    endloop
  endfacet
  facet normal 0 0 1
    outer loop
      vertex -4.71627 13.686 0.5
      vertex -7.5 20 0.5
      vertex -4.71627 -13.686 0.5
    endloop
  endfacet
  facet normal -0 0 1
    outer loop
      vertex 4.71627 -13.686 0.5
      vertex 7.5 -20 0.5
      vertex 4.71627 13.686 0.5
    endloop
  endfacet
  facet normal 0 0 1
    outer loop
      vertex 7.5 -20 0.5
      vertex 4.71627 -13.686 0.5
      vertex 4.766 -14 0.5
    endloop
  endfacet
  facet normal -0 0 1
    outer loop
      vertex 4.57196 13.4028 0.5
      vertex 4.71627 -13.686 0.5
      vertex 4.71627 13.686 0.5
    endloop
  endfacet
  facet normal 0 0 1
    outer loop
      vertex 4.57196 13.4028 0.5
      vertex 4.57196 -13.4028 0.5
      vertex 4.71627 -13.686 0.5
    endloop
  endfacet
  facet normal -0 0 1
    outer loop
      vertex 4.34719 13.178 0.5
      vertex 4.57196 -13.4028 0.5
      vertex 4.57196 13.4028 0.5
    endloop
  endfacet
  facet normal 0 0 1
    outer loop
      vertex 4.34719 13.178 0.5
      vertex 4.34719 -13.178 0.5
      vertex 4.57196 -13.4028 0.5
    endloop
  endfacet
  facet normal -0 0 1
    outer loop
      vertex 4.06396 13.0337 0.5
      vertex 4.34719 -13.178 0.5
      vertex 4.34719 13.178 0.5
    endloop
  endfacet
  facet normal 0 0 1
    outer loop
      vertex 4.06396 13.0337 0.5
      vertex 4.06396 -13.0337 0.5
      vertex 4.34719 -13.178 0.5
    endloop
  endfacet
  facet normal -0 0 1
    outer loop
      vertex 3.75 12.984 0.5
      vertex 4.06396 -13.0337 0.5
      vertex 4.06396 13.0337 0.5
    endloop
  endfacet
  facet normal 0 0 1
    outer loop
      vertex 3.75 12.984 0.5
      vertex 3.75 -12.984 0.5
      vertex 4.06396 -13.0337 0.5
    endloop
  endfacet
  facet normal 0 0 1
    outer loop
      vertex 3.43604 13.0337 0.5
      vertex 3.75 -12.984 0.5
      vertex 3.75 12.984 0.5
    endloop
  endfacet
  facet normal 0 0 1
    outer loop
      vertex 3.43604 13.0337 0.5
      vertex 3.43604 -13.0337 0.5
      vertex 3.75 -12.984 0.5
    endloop
  endfacet
  facet normal 0 0 1
    outer loop
      vertex -2.92804 13.4028 0.5
      vertex 2.92804 13.4028 0.5
      vertex -2.78373 13.686 0.5
    endloop
  endfacet
  facet normal 0 0 1
    outer loop
      vertex 2.92804 13.4028 0.5
      vertex -2.92804 13.4028 0.5
      vertex 3.15281 13.178 0.5
    endloop
  endfacet
  facet normal 0 0 1
    outer loop
      vertex 2.78373 13.686 0.5
      vertex -2.78373 13.686 0.5
      vertex 2.92804 13.4028 0.5
    endloop
  endfacet
  facet normal 0 0 1
    outer loop
      vertex -3.15281 13.178 0.5
      vertex 3.15281 13.178 0.5
      vertex -2.92804 13.4028 0.5
    endloop
  endfacet
  facet normal 0 0 1
    outer loop
      vertex -2.78373 13.686 0.5
      vertex 2.78373 13.686 0.5
      vertex -2.734 14 0.5
    endloop
  endfacet
  facet normal 0 0 1
    outer loop
      vertex 3.43604 -13.0337 0.5
      vertex -2.734 -14 0.5
      vertex 3.15281 -13.178 0.5
    endloop
  endfacet
  facet normal -0 0 1
    outer loop
      vertex -2.734 14 0.5
      vertex 2.78373 13.686 0.5
      vertex 2.734 14 0.5
    endloop
  endfacet
  facet normal 0 0 1
    outer loop
      vertex 3.15281 -13.178 0.5
      vertex -2.734 -14 0.5
      vertex 2.92804 -13.4028 0.5
    endloop
  endfacet
  facet normal 0 0 1
    outer loop
      vertex 4.71627 13.686 0.5
      vertex 7.5 20 0.5
      vertex 4.766 14 0.5
    endloop
  endfacet
  facet normal 0 0 1
    outer loop
      vertex 7.5 20 0.5
      vertex 4.71627 14.314 0.5
      vertex 4.766 14 0.5
    endloop
  endfacet
  facet normal 0 0 1
    outer loop
      vertex 7.5 20 0.5
      vertex 4.57196 14.5972 0.5
      vertex 4.71627 14.314 0.5
    endloop
  endfacet
  facet normal 0 0 1
    outer loop
      vertex 7.5 20 0.5
      vertex 4.34719 14.822 0.5
      vertex 4.57196 14.5972 0.5
    endloop
  endfacet
  facet normal 0 0 1
    outer loop
      vertex 7.5 20 0.5
      vertex 4.06396 14.9663 0.5
      vertex 4.34719 14.822 0.5
    endloop
  endfacet
  facet normal 0 0 1
    outer loop
      vertex 7.5 20 0.5
      vertex 3.75 15.016 0.5
      vertex 4.06396 14.9663 0.5
    endloop
  endfacet
  facet normal 0 0 1
    outer loop
      vertex 7.5 20 0.5
      vertex 3.43604 14.9663 0.5
      vertex 3.75 15.016 0.5
    endloop
  endfacet
  facet normal 0 0 1
    outer loop
      vertex -3.43604 14.9663 0.5
      vertex 3.43604 14.9663 0.5
      vertex 7.5 20 0.5
    endloop
  endfacet
  facet normal 0 0 1
    outer loop
      vertex 3.43604 14.9663 0.5
      vertex -3.43604 14.9663 0.5
      vertex 3.15281 14.822 0.5
    endloop
  endfacet
  facet normal 0 0 1
    outer loop
      vertex 2.92804 -13.4028 0.5
      vertex -2.734 -14 0.5
      vertex 2.78373 -13.686 0.5
    endloop
  endfacet
  facet normal 0 0 1
    outer loop
      vertex 2.78373 14.314 0.5
      vertex -2.734 14 0.5
      vertex 2.734 14 0.5
    endloop
  endfacet
  facet normal 0 0 1
    outer loop
      vertex -2.78373 14.314 0.5
      vertex 2.78373 14.314 0.5
      vertex 2.92804 14.5972 0.5
    endloop
  endfacet
  facet normal 0 0 1
    outer loop
      vertex 3.15281 14.822 0.5
      vertex -3.15281 14.822 0.5
      vertex 2.92804 14.5972 0.5
    endloop
  endfacet
  facet normal 0 0 1
    outer loop
      vertex 2.78373 14.314 0.5
      vertex -2.78373 14.314 0.5
      vertex -2.734 14 0.5
    endloop
  endfacet
  facet normal 0 0 1
    outer loop
      vertex 2.92804 14.5972 0.5
      vertex -2.92804 14.5972 0.5
      vertex -2.78373 14.314 0.5
    endloop
  endfacet
  facet normal 0 0 1
    outer loop
      vertex 2.92804 14.5972 0.5
      vertex -3.15281 14.822 0.5
      vertex -2.92804 14.5972 0.5
    endloop
  endfacet
  facet normal 0 0 1
    outer loop
      vertex 3.15281 14.822 0.5
      vertex -3.43604 14.9663 0.5
      vertex -3.15281 14.822 0.5
    endloop
  endfacet
  facet normal -0 0 1
    outer loop
      vertex -7.5 20 0.5
      vertex -3.43604 14.9663 0.5
      vertex 7.5 20 0.5
    endloop
  endfacet
  facet normal 0 0 1
    outer loop
      vertex -3.43604 14.9663 0.5
      vertex -7.5 20 0.5
      vertex -3.75 15.016 0.5
    endloop
  endfacet
  facet normal 0 0 1
    outer loop
      vertex -7.5 -20 0.5
      vertex -4.71627 -13.686 0.5
      vertex -7.5 20 0.5
    endloop
  endfacet
  facet normal 0 0 1
    outer loop
      vertex -4.71627 14.314 0.5
      vertex -7.5 20 0.5
      vertex -4.766 14 0.5
    endloop
  endfacet
  facet normal 0 0 1
    outer loop
      vertex -4.57196 14.5972 0.5
      vertex -7.5 20 0.5
      vertex -4.71627 14.314 0.5
    endloop
  endfacet
  facet normal 0 0 1
    outer loop
      vertex -4.34719 14.822 0.5
      vertex -7.5 20 0.5
      vertex -4.57196 14.5972 0.5
    endloop
  endfacet
  facet normal 0 0 1
    outer loop
      vertex -4.06396 14.9663 0.5
      vertex -7.5 20 0.5
      vertex -4.34719 14.822 0.5
    endloop
  endfacet
  facet normal 0 0 1
    outer loop
      vertex -3.75 15.016 0.5
      vertex -7.5 20 0.5
      vertex -4.06396 14.9663 0.5
    endloop
  endfacet
  facet normal 0 0 1
    outer loop
      vertex 7.5 20 0.5
      vertex 4.71627 13.686 0.5
      vertex 7.5 -20 0.5
    endloop
  endfacet
  facet normal -0 0 1
    outer loop
      vertex 4.71627 -14.314 0.5
      vertex 7.5 -20 0.5
      vertex 4.766 -14 0.5
    endloop
  endfacet
  facet normal -0 0 1
    outer loop
      vertex 4.57196 -14.5972 0.5
      vertex 7.5 -20 0.5
      vertex 4.71627 -14.314 0.5
    endloop
  endfacet
  facet normal -0 0 1
    outer loop
      vertex 4.34719 -14.822 0.5
      vertex 7.5 -20 0.5
      vertex 4.57196 -14.5972 0.5
    endloop
  endfacet
  facet normal -0 0 1
    outer loop
      vertex 4.06396 -14.9663 0.5
      vertex 7.5 -20 0.5
      vertex 4.34719 -14.822 0.5
    endloop
  endfacet
  facet normal -0 0 1
    outer loop
      vertex 3.75 -15.016 0.5
      vertex 7.5 -20 0.5
      vertex 4.06396 -14.9663 0.5
    endloop
  endfacet
  facet normal 0 0 1
    outer loop
      vertex 3.43604 -14.9663 0.5
      vertex 7.5 -20 0.5
      vertex 3.75 -15.016 0.5
    endloop
  endfacet
  facet normal 0 0 1
    outer loop
      vertex -3.43604 -14.9663 0.5
      vertex 3.43604 -14.9663 0.5
      vertex 3.15281 -14.822 0.5
    endloop
  endfacet
  facet normal 0 0 1
    outer loop
      vertex -3.15281 -14.822 0.5
      vertex 3.15281 -14.822 0.5
      vertex 2.92804 -14.5972 0.5
    endloop
  endfacet
  facet normal 0 0 1
    outer loop
      vertex 2.78373 -13.686 0.5
      vertex -2.734 -14 0.5
      vertex 2.734 -14 0.5
    endloop
  endfacet
  facet normal 0 0 1
    outer loop
      vertex 2.734 -14 0.5
      vertex -2.734 -14 0.5
      vertex 2.78373 -14.314 0.5
    endloop
  endfacet
  facet normal 0 0 1
    outer loop
      vertex -2.78373 -14.314 0.5
      vertex 2.78373 -14.314 0.5
      vertex -2.734 -14 0.5
    endloop
  endfacet
  facet normal 0 0 1
    outer loop
      vertex 2.78373 -14.314 0.5
      vertex -2.78373 -14.314 0.5
      vertex 2.92804 -14.5972 0.5
    endloop
  endfacet
  facet normal 0 0 1
    outer loop
      vertex -2.92804 -14.5972 0.5
      vertex 2.92804 -14.5972 0.5
      vertex -2.78373 -14.314 0.5
    endloop
  endfacet
  facet normal 0 0 1
    outer loop
      vertex -3.15281 -14.822 0.5
      vertex 2.92804 -14.5972 0.5
      vertex -2.92804 -14.5972 0.5
    endloop
  endfacet
  facet normal 0 0 1
    outer loop
      vertex -3.43604 -14.9663 0.5
      vertex 3.15281 -14.822 0.5
      vertex -3.15281 -14.822 0.5
    endloop
  endfacet
  facet normal 0 0 1
    outer loop
      vertex 3.43604 -14.9663 0.5
      vertex -3.43604 -14.9663 0.5
      vertex 7.5 -20 0.5
    endloop
  endfacet
  facet normal 0 0 1
    outer loop
      vertex -7.5 -20 0.5
      vertex -3.43604 -14.9663 0.5
      vertex -3.75 -15.016 0.5
    endloop
  endfacet
  facet normal 0 0 1
    outer loop
      vertex -7.5 -20 0.5
      vertex -3.75 -15.016 0.5
      vertex -4.06396 -14.9663 0.5
    endloop
  endfacet
  facet normal 0 0 1
    outer loop
      vertex -3.43604 -14.9663 0.5
      vertex -7.5 -20 0.5
      vertex 7.5 -20 0.5
    endloop
  endfacet
  facet normal 0 0 1
    outer loop
      vertex -4.34719 -14.822 0.5
      vertex -7.5 -20 0.5
      vertex -4.06396 -14.9663 0.5
    endloop
  endfacet
  facet normal 0 0 1
    outer loop
      vertex -4.57196 -14.5972 0.5
      vertex -7.5 -20 0.5
      vertex -4.34719 -14.822 0.5
    endloop
  endfacet
  facet normal 0 0 1
    outer loop
      vertex -4.71627 -14.314 0.5
      vertex -7.5 -20 0.5
      vertex -4.57196 -14.5972 0.5
    endloop
  endfacet
  facet normal 0 0 1
    outer loop
      vertex -4.766 -14 0.5
      vertex -7.5 -20 0.5
      vertex -4.71627 -14.314 0.5
    endloop
  endfacet
  facet normal 0 0 1
    outer loop
      vertex -4.71627 -13.686 0.5
      vertex -7.5 -20 0.5
      vertex -4.766 -14 0.5
    endloop
  endfacet
  facet normal 0 1 -0
    outer loop
      vertex 7.5 20 -0.5
      vertex -7.5 20 0.5
      vertex 7.5 20 0.5
    endloop
  endfacet
  facet normal 0 1 0
    outer loop
      vertex -7.5 20 0.5
      vertex 7.5 20 -0.5
      vertex -7.5 20 -0.5
    endloop
  endfacet
  facet normal -1 0 0
    outer loop
      vertex -7.5 -20 -0.5
      vertex -7.5 20 0.5
      vertex -7.5 20 -0.5
    endloop
  endfacet
  facet normal -1 -0 0
    outer loop
      vertex -7.5 20 0.5
      vertex -7.5 -20 -0.5
      vertex -7.5 -20 0.5
    endloop
  endfacet
  facet normal 0 0 -1
    outer loop
      vertex 3.15281 -13.178 -0.5
      vertex -3.15281 -13.178 -0.5
      vertex 3.43604 -13.0337 -0.5
    endloop
  endfacet
  facet normal 0 0 -1
    outer loop
      vertex 3.43604 13.0337 -0.5
      vertex -2.78373 13.686 -0.5
      vertex -2.734 14 -0.5
    endloop
  endfacet
  facet normal 0 0 -1
    outer loop
      vertex -3.43604 -13.0337 -0.5
      vertex 3.43604 -13.0337 -0.5
      vertex -3.15281 -13.178 -0.5
    endloop
  endfacet
  facet normal 0 0 -1
    outer loop
      vertex 3.43604 13.0337 -0.5
      vertex -2.92804 13.4028 -0.5
      vertex -2.78373 13.686 -0.5
    endloop
  endfacet
  facet normal 0 0 -1
    outer loop
      vertex 3.43604 -13.0337 -0.5
      vertex -3.43604 -13.0337 -0.5
      vertex 3.43604 13.0337 -0.5
    endloop
  endfacet
  facet normal 0 0 -1
    outer loop
      vertex 3.43604 13.0337 -0.5
      vertex -3.15281 13.178 -0.5
      vertex -2.92804 13.4028 -0.5
    endloop
  endfacet
  facet normal 0 0 -1
    outer loop
      vertex -3.43604 13.0337 -0.5
      vertex 3.43604 13.0337 -0.5
      vertex -3.43604 -13.0337 -0.5
    endloop
  endfacet
  facet normal 0 0 -1
    outer loop
      vertex 3.43604 13.0337 -0.5
      vertex -3.43604 13.0337 -0.5
      vertex -3.15281 13.178 -0.5
    endloop
  endfacet
  facet normal 0 0 -1
    outer loop
      vertex -3.75 -12.984 -0.5
      vertex -3.43604 13.0337 -0.5
      vertex -3.43604 -13.0337 -0.5
    endloop
  endfacet
  facet normal 0 0 -1
    outer loop
      vertex -3.75 -12.984 -0.5
      vertex -3.75 12.984 -0.5
      vertex -3.43604 13.0337 -0.5
    endloop
  endfacet
  facet normal 0 0 -1
    outer loop
      vertex -4.06396 -13.0337 -0.5
      vertex -3.75 12.984 -0.5
      vertex -3.75 -12.984 -0.5
    endloop
  endfacet
  facet normal 0 0 -1
    outer loop
      vertex -4.06396 -13.0337 -0.5
      vertex -4.06396 13.0337 -0.5
      vertex -3.75 12.984 -0.5
    endloop
  endfacet
  facet normal 0 0 -1
    outer loop
      vertex -4.34719 -13.178 -0.5
      vertex -4.06396 13.0337 -0.5
      vertex -4.06396 -13.0337 -0.5
    endloop
  endfacet
  facet normal 0 0 -1
    outer loop
      vertex -4.34719 -13.178 -0.5
      vertex -4.34719 13.178 -0.5
      vertex -4.06396 13.0337 -0.5
    endloop
  endfacet
  facet normal 0 0 -1
    outer loop
      vertex -4.57196 -13.4028 -0.5
      vertex -4.34719 13.178 -0.5
      vertex -4.34719 -13.178 -0.5
    endloop
  endfacet
  facet normal 0 0 -1
    outer loop
      vertex -4.57196 -13.4028 -0.5
      vertex -4.57196 13.4028 -0.5
      vertex -4.34719 13.178 -0.5
    endloop
  endfacet
  facet normal 0 0 -1
    outer loop
      vertex -4.71627 -13.686 -0.5
      vertex -4.57196 13.4028 -0.5
      vertex -4.57196 -13.4028 -0.5
    endloop
  endfacet
  facet normal 0 0 -1
    outer loop
      vertex -4.71627 -13.686 -0.5
      vertex -4.71627 13.686 -0.5
      vertex -4.57196 13.4028 -0.5
    endloop
  endfacet
  facet normal 0 0 -1
    outer loop
      vertex -7.5 -20 -0.5
      vertex -4.71627 -13.686 -0.5
      vertex -4.766 -14 -0.5
    endloop
  endfacet
  facet normal -0 0 -1
    outer loop
      vertex -4.71627 -13.686 -0.5
      vertex -7.5 -20 -0.5
      vertex -4.71627 13.686 -0.5
    endloop
  endfacet
  facet normal 0 0 -1
    outer loop
      vertex 4.71627 13.686 -0.5
      vertex 7.5 20 -0.5
      vertex 4.71627 -13.686 -0.5
    endloop
  endfacet
  facet normal 0 0 -1
    outer loop
      vertex 7.5 20 -0.5
      vertex 4.71627 13.686 -0.5
      vertex 4.766 14 -0.5
    endloop
  endfacet
  facet normal 0 0 -1
    outer loop
      vertex 4.57196 -13.4028 -0.5
      vertex 4.71627 13.686 -0.5
      vertex 4.71627 -13.686 -0.5
    endloop
  endfacet
  facet normal 0 0 -1
    outer loop
      vertex 4.57196 -13.4028 -0.5
      vertex 4.57196 13.4028 -0.5
      vertex 4.71627 13.686 -0.5
    endloop
  endfacet
  facet normal 0 0 -1
    outer loop
      vertex 4.34719 -13.178 -0.5
      vertex 4.57196 13.4028 -0.5
      vertex 4.57196 -13.4028 -0.5
    endloop
  endfacet
  facet normal 0 0 -1
    outer loop
      vertex 4.34719 -13.178 -0.5
      vertex 4.34719 13.178 -0.5
      vertex 4.57196 13.4028 -0.5
    endloop
  endfacet
  facet normal 0 0 -1
    outer loop
      vertex 4.06396 -13.0337 -0.5
      vertex 4.34719 13.178 -0.5
      vertex 4.34719 -13.178 -0.5
    endloop
  endfacet
  facet normal 0 0 -1
    outer loop
      vertex 4.06396 -13.0337 -0.5
      vertex 4.06396 13.0337 -0.5
      vertex 4.34719 13.178 -0.5
    endloop
  endfacet
  facet normal 0 0 -1
    outer loop
      vertex 3.75 -12.984 -0.5
      vertex 4.06396 13.0337 -0.5
      vertex 4.06396 -13.0337 -0.5
    endloop
  endfacet
  facet normal 0 0 -1
    outer loop
      vertex 3.75 -12.984 -0.5
      vertex 3.75 12.984 -0.5
      vertex 4.06396 13.0337 -0.5
    endloop
  endfacet
  facet normal 0 0 -1
    outer loop
      vertex 3.43604 -13.0337 -0.5
      vertex 3.75 12.984 -0.5
      vertex 3.75 -12.984 -0.5
    endloop
  endfacet
  facet normal 0 0 -1
    outer loop
      vertex 3.43604 -13.0337 -0.5
      vertex 3.43604 13.0337 -0.5
      vertex 3.75 12.984 -0.5
    endloop
  endfacet
  facet normal 0 0 -1
    outer loop
      vertex -2.92804 -13.4028 -0.5
      vertex 2.92804 -13.4028 -0.5
      vertex -2.78373 -13.686 -0.5
    endloop
  endfacet
  facet normal 0 0 -1
    outer loop
      vertex 2.92804 -13.4028 -0.5
      vertex -2.92804 -13.4028 -0.5
      vertex 3.15281 -13.178 -0.5
    endloop
  endfacet
  facet normal 0 0 -1
    outer loop
      vertex 2.78373 -13.686 -0.5
      vertex -2.78373 -13.686 -0.5
      vertex 2.92804 -13.4028 -0.5
    endloop
  endfacet
  facet normal 0 0 -1
    outer loop
      vertex -3.15281 -13.178 -0.5
      vertex 3.15281 -13.178 -0.5
      vertex -2.92804 -13.4028 -0.5
    endloop
  endfacet
  facet normal 0 0 -1
    outer loop
      vertex -2.78373 -13.686 -0.5
      vertex 2.78373 -13.686 -0.5
      vertex -2.734 -14 -0.5
    endloop
  endfacet
  facet normal 0 0 -1
    outer loop
      vertex 3.43604 13.0337 -0.5
      vertex -2.734 14 -0.5
      vertex 3.15281 13.178 -0.5
    endloop
  endfacet
  facet normal 0 0 -1
    outer loop
      vertex -2.734 -14 -0.5
      vertex 2.78373 -13.686 -0.5
      vertex 2.734 -14 -0.5
    endloop
  endfacet
  facet normal 0 0 -1
    outer loop
      vertex 3.15281 13.178 -0.5
      vertex -2.734 14 -0.5
      vertex 2.92804 13.4028 -0.5
    endloop
  endfacet
  facet normal 0 0 -1
    outer loop
      vertex 4.71627 -13.686 -0.5
      vertex 7.5 -20 -0.5
      vertex 4.766 -14 -0.5
    endloop
  endfacet
  facet normal 0 0 -1
    outer loop
      vertex 7.5 -20 -0.5
      vertex 4.71627 -14.314 -0.5
      vertex 4.766 -14 -0.5
    endloop
  endfacet
  facet normal 0 0 -1
    outer loop
      vertex 7.5 -20 -0.5
      vertex 4.57196 -14.5972 -0.5
      vertex 4.71627 -14.314 -0.5
    endloop
  endfacet
  facet normal 0 0 -1
    outer loop
      vertex 7.5 -20 -0.5
      vertex 4.34719 -14.822 -0.5
      vertex 4.57196 -14.5972 -0.5
    endloop
  endfacet
  facet normal 0 0 -1
    outer loop
      vertex 7.5 -20 -0.5
      vertex 4.06396 -14.9663 -0.5
      vertex 4.34719 -14.822 -0.5
    endloop
  endfacet
  facet normal 0 0 -1
    outer loop
      vertex 7.5 -20 -0.5
      vertex 3.75 -15.016 -0.5
      vertex 4.06396 -14.9663 -0.5
    endloop
  endfacet
  facet normal 0 0 -1
    outer loop
      vertex 7.5 -20 -0.5
      vertex 3.43604 -14.9663 -0.5
      vertex 3.75 -15.016 -0.5
    endloop
  endfacet
  facet normal 0 0 -1
    outer loop
      vertex -3.43604 -14.9663 -0.5
      vertex 3.43604 -14.9663 -0.5
      vertex 7.5 -20 -0.5
    endloop
  endfacet
  facet normal 0 0 -1
    outer loop
      vertex 3.43604 -14.9663 -0.5
      vertex -3.43604 -14.9663 -0.5
      vertex 3.15281 -14.822 -0.5
    endloop
  endfacet
  facet normal 0 0 -1
    outer loop
      vertex 2.92804 13.4028 -0.5
      vertex -2.734 14 -0.5
      vertex 2.78373 13.686 -0.5
    endloop
  endfacet
  facet normal 0 0 -1
    outer loop
      vertex 2.78373 -14.314 -0.5
      vertex -2.734 -14 -0.5
      vertex 2.734 -14 -0.5
    endloop
  endfacet
  facet normal 0 0 -1
    outer loop
      vertex -2.78373 -14.314 -0.5
      vertex 2.78373 -14.314 -0.5
      vertex 2.92804 -14.5972 -0.5
    endloop
  endfacet
  facet normal 0 0 -1
    outer loop
      vertex 3.15281 -14.822 -0.5
      vertex -3.15281 -14.822 -0.5
      vertex 2.92804 -14.5972 -0.5
    endloop
  endfacet
  facet normal 0 0 -1
    outer loop
      vertex 2.78373 -14.314 -0.5
      vertex -2.78373 -14.314 -0.5
      vertex -2.734 -14 -0.5
    endloop
  endfacet
  facet normal 0 0 -1
    outer loop
      vertex 2.92804 -14.5972 -0.5
      vertex -2.92804 -14.5972 -0.5
      vertex -2.78373 -14.314 -0.5
    endloop
  endfacet
  facet normal -0 0 -1
    outer loop
      vertex 2.92804 -14.5972 -0.5
      vertex -3.15281 -14.822 -0.5
      vertex -2.92804 -14.5972 -0.5
    endloop
  endfacet
  facet normal -0 0 -1
    outer loop
      vertex 3.15281 -14.822 -0.5
      vertex -3.43604 -14.9663 -0.5
      vertex -3.15281 -14.822 -0.5
    endloop
  endfacet
  facet normal 0 0 -1
    outer loop
      vertex -7.5 -20 -0.5
      vertex -3.43604 -14.9663 -0.5
      vertex 7.5 -20 -0.5
    endloop
  endfacet
  facet normal 0 0 -1
    outer loop
      vertex -3.43604 -14.9663 -0.5
      vertex -7.5 -20 -0.5
      vertex -3.75 -15.016 -0.5
    endloop
  endfacet
  facet normal 0 0 -1
    outer loop
      vertex -7.5 20 -0.5
      vertex -4.71627 13.686 -0.5
      vertex -7.5 -20 -0.5
    endloop
  endfacet
  facet normal -0 0 -1
    outer loop
      vertex -4.71627 -14.314 -0.5
      vertex -7.5 -20 -0.5
      vertex -4.766 -14 -0.5
    endloop
  endfacet
  facet normal -0 0 -1
    outer loop
      vertex -4.57196 -14.5972 -0.5
      vertex -7.5 -20 -0.5
      vertex -4.71627 -14.314 -0.5
    endloop
  endfacet
  facet normal -0 0 -1
    outer loop
      vertex -4.34719 -14.822 -0.5
      vertex -7.5 -20 -0.5
      vertex -4.57196 -14.5972 -0.5
    endloop
  endfacet
  facet normal -0 0 -1
    outer loop
      vertex -4.06396 -14.9663 -0.5
      vertex -7.5 -20 -0.5
      vertex -4.34719 -14.822 -0.5
    endloop
  endfacet
  facet normal -0 0 -1
    outer loop
      vertex -3.75 -15.016 -0.5
      vertex -7.5 -20 -0.5
      vertex -4.06396 -14.9663 -0.5
    endloop
  endfacet
  facet normal 0 0 -1
    outer loop
      vertex 7.5 -20 -0.5
      vertex 4.71627 -13.686 -0.5
      vertex 7.5 20 -0.5
    endloop
  endfacet
  facet normal 0 0 -1
    outer loop
      vertex 4.71627 14.314 -0.5
      vertex 7.5 20 -0.5
      vertex 4.766 14 -0.5
    endloop
  endfacet
  facet normal 0 0 -1
    outer loop
      vertex 4.57196 14.5972 -0.5
      vertex 7.5 20 -0.5
      vertex 4.71627 14.314 -0.5
    endloop
  endfacet
  facet normal 0 0 -1
    outer loop
      vertex 4.34719 14.822 -0.5
      vertex 7.5 20 -0.5
      vertex 4.57196 14.5972 -0.5
    endloop
  endfacet
  facet normal 0 0 -1
    outer loop
      vertex 4.06396 14.9663 -0.5
      vertex 7.5 20 -0.5
      vertex 4.34719 14.822 -0.5
    endloop
  endfacet
  facet normal 0 0 -1
    outer loop
      vertex 3.75 15.016 -0.5
      vertex 7.5 20 -0.5
      vertex 4.06396 14.9663 -0.5
    endloop
  endfacet
  facet normal 0 0 -1
    outer loop
      vertex 3.43604 14.9663 -0.5
      vertex 7.5 20 -0.5
      vertex 3.75 15.016 -0.5
    endloop
  endfacet
  facet normal 0 0 -1
    outer loop
      vertex -3.43604 14.9663 -0.5
      vertex 3.43604 14.9663 -0.5
      vertex 3.15281 14.822 -0.5
    endloop
  endfacet
  facet normal 0 0 -1
    outer loop
      vertex -3.15281 14.822 -0.5
      vertex 3.15281 14.822 -0.5
      vertex 2.92804 14.5972 -0.5
    endloop
  endfacet
  facet normal 0 0 -1
    outer loop
      vertex 2.78373 13.686 -0.5
      vertex -2.734 14 -0.5
      vertex 2.734 14 -0.5
    endloop
  endfacet
  facet normal 0 0 -1
    outer loop
      vertex 2.734 14 -0.5
      vertex -2.734 14 -0.5
      vertex 2.78373 14.314 -0.5
    endloop
  endfacet
  facet normal 0 0 -1
    outer loop
      vertex -2.78373 14.314 -0.5
      vertex 2.78373 14.314 -0.5
      vertex -2.734 14 -0.5
    endloop
  endfacet
  facet normal 0 0 -1
    outer loop
      vertex 2.78373 14.314 -0.5
      vertex -2.78373 14.314 -0.5
      vertex 2.92804 14.5972 -0.5
    endloop
  endfacet
  facet normal 0 0 -1
    outer loop
      vertex -2.92804 14.5972 -0.5
      vertex 2.92804 14.5972 -0.5
      vertex -2.78373 14.314 -0.5
    endloop
  endfacet
  facet normal 0 0 -1
    outer loop
      vertex -3.15281 14.822 -0.5
      vertex 2.92804 14.5972 -0.5
      vertex -2.92804 14.5972 -0.5
    endloop
  endfacet
  facet normal 0 0 -1
    outer loop
      vertex -3.43604 14.9663 -0.5
      vertex 3.15281 14.822 -0.5
      vertex -3.15281 14.822 -0.5
    endloop
  endfacet
  facet normal 0 0 -1
    outer loop
      vertex 3.43604 14.9663 -0.5
      vertex -3.43604 14.9663 -0.5
      vertex 7.5 20 -0.5
    endloop
  endfacet
  facet normal 0 0 -1
    outer loop
      vertex -7.5 20 -0.5
      vertex -3.43604 14.9663 -0.5
      vertex -3.75 15.016 -0.5
    endloop
  endfacet
  facet normal 0 0 -1
    outer loop
      vertex -7.5 20 -0.5
      vertex -3.75 15.016 -0.5
      vertex -4.06396 14.9663 -0.5
    endloop
  endfacet
  facet normal 0 0 -1
    outer loop
      vertex -3.43604 14.9663 -0.5
      vertex -7.5 20 -0.5
      vertex 7.5 20 -0.5
    endloop
  endfacet
  facet normal 0 0 -1
    outer loop
      vertex -4.34719 14.822 -0.5
      vertex -7.5 20 -0.5
      vertex -4.06396 14.9663 -0.5
    endloop
  endfacet
  facet normal 0 0 -1
    outer loop
      vertex -4.57196 14.5972 -0.5
      vertex -7.5 20 -0.5
      vertex -4.34719 14.822 -0.5
    endloop
  endfacet
  facet normal 0 0 -1
    outer loop
      vertex -4.71627 14.314 -0.5
      vertex -7.5 20 -0.5
      vertex -4.57196 14.5972 -0.5
    endloop
  endfacet
  facet normal 0 0 -1
    outer loop
      vertex -4.766 14 -0.5
      vertex -7.5 20 -0.5
      vertex -4.71627 14.314 -0.5
    endloop
  endfacet
  facet normal 0 0 -1
    outer loop
      vertex -4.71627 13.686 -0.5
      vertex -7.5 20 -0.5
      vertex -4.766 14 -0.5
    endloop
  endfacet
  facet normal 1 -0 0
    outer loop
      vertex 7.5 -20 0.5
      vertex 7.5 20 -0.5
      vertex 7.5 20 0.5
    endloop
  endfacet
  facet normal 1 0 0
    outer loop
      vertex 7.5 20 -0.5
      vertex 7.5 -20 0.5
      vertex 7.5 -20 -0.5
    endloop
  endfacet
  facet normal 0.156434 -0.987688 0
    outer loop
      vertex -4.06396 14.9663 -0.5
      vertex -3.75 15.016 0.5
      vertex -4.06396 14.9663 0.5
    endloop
  endfacet
  facet normal 0.156434 -0.987688 0
    outer loop
      vertex -3.75 15.016 0.5
      vertex -4.06396 14.9663 -0.5
      vertex -3.75 15.016 -0.5
    endloop
  endfacet
  facet normal 0.987688 0.156434 0
    outer loop
      vertex -4.71627 13.686 0.5
      vertex -4.766 14 -0.5
      vertex -4.766 14 0.5
    endloop
  endfacet
  facet normal 0.987688 0.156434 0
    outer loop
      vertex -4.766 14 -0.5
      vertex -4.71627 13.686 0.5
      vertex -4.71627 13.686 -0.5
    endloop
  endfacet
  facet normal -0.987688 -0.156434 0
    outer loop
      vertex -2.734 14 -0.5
      vertex -2.78373 14.314 0.5
      vertex -2.78373 14.314 -0.5
    endloop
  endfacet
  facet normal -0.987688 -0.156434 0
    outer loop
      vertex -2.78373 14.314 0.5
      vertex -2.734 14 -0.5
      vertex -2.734 14 0.5
    endloop
  endfacet
  facet normal -0.891005 0.453993 0
    outer loop
      vertex -2.92804 13.4028 -0.5
      vertex -2.78373 13.686 0.5
      vertex -2.78373 13.686 -0.5
    endloop
  endfacet
  facet normal -0.891005 0.453993 0
    outer loop
      vertex -2.78373 13.686 0.5
      vertex -2.92804 13.4028 -0.5
      vertex -2.92804 13.4028 0.5
    endloop
  endfacet
  facet normal 0.891005 -0.453993 0
    outer loop
      vertex -4.71627 14.314 0.5
      vertex -4.57196 14.5972 -0.5
      vertex -4.57196 14.5972 0.5
    endloop
  endfacet
  facet normal 0.891005 -0.453993 0
    outer loop
      vertex -4.57196 14.5972 -0.5
      vertex -4.71627 14.314 0.5
      vertex -4.71627 14.314 -0.5
    endloop
  endfacet
  facet normal 0.453993 -0.891005 0
    outer loop
      vertex -4.34719 14.822 -0.5
      vertex -4.06396 14.9663 0.5
      vertex -4.34719 14.822 0.5
    endloop
  endfacet
  facet normal 0.453993 -0.891005 0
    outer loop
      vertex -4.06396 14.9663 0.5
      vertex -4.34719 14.822 -0.5
      vertex -4.06396 14.9663 -0.5
    endloop
  endfacet
  facet normal 0.987688 -0.156434 0
    outer loop
      vertex -4.766 14 0.5
      vertex -4.71627 14.314 -0.5
      vertex -4.71627 14.314 0.5
    endloop
  endfacet
  facet normal 0.987688 -0.156434 0
    outer loop
      vertex -4.71627 14.314 -0.5
      vertex -4.766 14 0.5
      vertex -4.766 14 -0.5
    endloop
  endfacet
  facet normal 0.453993 0.891005 -0
    outer loop
      vertex -4.06396 13.0337 -0.5
      vertex -4.34719 13.178 0.5
      vertex -4.06396 13.0337 0.5
    endloop
  endfacet
  facet normal 0.453993 0.891005 0
    outer loop
      vertex -4.34719 13.178 0.5
      vertex -4.06396 13.0337 -0.5
      vertex -4.34719 13.178 -0.5
    endloop
  endfacet
  facet normal 0.156434 0.987688 -0
    outer loop
      vertex -3.75 12.984 -0.5
      vertex -4.06396 13.0337 0.5
      vertex -3.75 12.984 0.5
    endloop
  endfacet
  facet normal 0.156434 0.987688 0
    outer loop
      vertex -4.06396 13.0337 0.5
      vertex -3.75 12.984 -0.5
      vertex -4.06396 13.0337 -0.5
    endloop
  endfacet
  facet normal 0.891005 0.453993 0
    outer loop
      vertex -4.57196 13.4028 0.5
      vertex -4.71627 13.686 -0.5
      vertex -4.71627 13.686 0.5
    endloop
  endfacet
  facet normal 0.891005 0.453993 0
    outer loop
      vertex -4.71627 13.686 -0.5
      vertex -4.57196 13.4028 0.5
      vertex -4.57196 13.4028 -0.5
    endloop
  endfacet
  facet normal -0.156434 -0.987688 0
    outer loop
      vertex -3.75 15.016 -0.5
      vertex -3.43604 14.9663 0.5
      vertex -3.75 15.016 0.5
    endloop
  endfacet
  facet normal -0.156434 -0.987688 -0
    outer loop
      vertex -3.43604 14.9663 0.5
      vertex -3.75 15.016 -0.5
      vertex -3.43604 14.9663 -0.5
    endloop
  endfacet
  facet normal -0.987688 0.156434 0
    outer loop
      vertex -2.78373 13.686 -0.5
      vertex -2.734 14 0.5
      vertex -2.734 14 -0.5
    endloop
  endfacet
  facet normal -0.987688 0.156434 0
    outer loop
      vertex -2.734 14 0.5
      vertex -2.78373 13.686 -0.5
      vertex -2.78373 13.686 0.5
    endloop
  endfacet
  facet normal -0.453993 0.891005 0
    outer loop
      vertex -3.15281 13.178 -0.5
      vertex -3.43604 13.0337 0.5
      vertex -3.15281 13.178 0.5
    endloop
  endfacet
  facet normal -0.453993 0.891005 0
    outer loop
      vertex -3.43604 13.0337 0.5
      vertex -3.15281 13.178 -0.5
      vertex -3.43604 13.0337 -0.5
    endloop
  endfacet
  facet normal 0.707107 -0.707107 0
    outer loop
      vertex -4.57196 14.5972 0.5
      vertex -4.34719 14.822 -0.5
      vertex -4.34719 14.822 0.5
    endloop
  endfacet
  facet normal 0.707107 -0.707107 0
    outer loop
      vertex -4.34719 14.822 -0.5
      vertex -4.57196 14.5972 0.5
      vertex -4.57196 14.5972 -0.5
    endloop
  endfacet
  facet normal -0.156434 0.987688 0
    outer loop
      vertex -3.43604 13.0337 -0.5
      vertex -3.75 12.984 0.5
      vertex -3.43604 13.0337 0.5
    endloop
  endfacet
  facet normal -0.156434 0.987688 0
    outer loop
      vertex -3.75 12.984 0.5
      vertex -3.43604 13.0337 -0.5
      vertex -3.75 12.984 -0.5
    endloop
  endfacet
  facet normal 0.707107 0.707107 0
    outer loop
      vertex -4.34719 13.178 0.5
      vertex -4.57196 13.4028 -0.5
      vertex -4.57196 13.4028 0.5
    endloop
  endfacet
  facet normal 0.707107 0.707107 0
    outer loop
      vertex -4.57196 13.4028 -0.5
      vertex -4.34719 13.178 0.5
      vertex -4.34719 13.178 -0.5
    endloop
  endfacet
  facet normal -0.891005 -0.453993 0
    outer loop
      vertex -2.78373 14.314 -0.5
      vertex -2.92804 14.5972 0.5
      vertex -2.92804 14.5972 -0.5
    endloop
  endfacet
  facet normal -0.891005 -0.453993 0
    outer loop
      vertex -2.92804 14.5972 0.5
      vertex -2.78373 14.314 -0.5
      vertex -2.78373 14.314 0.5
    endloop
  endfacet
  facet normal -0.707107 0.707107 0
    outer loop
      vertex -3.15281 13.178 -0.5
      vertex -2.92804 13.4028 0.5
      vertex -2.92804 13.4028 -0.5
    endloop
  endfacet
  facet normal -0.707107 0.707107 0
    outer loop
      vertex -2.92804 13.4028 0.5
      vertex -3.15281 13.178 -0.5
      vertex -3.15281 13.178 0.5
    endloop
  endfacet
  facet normal -0.707107 -0.707107 0
    outer loop
      vertex -2.92804 14.5972 -0.5
      vertex -3.15281 14.822 0.5
      vertex -3.15281 14.822 -0.5
    endloop
  endfacet
  facet normal -0.707107 -0.707107 0
    outer loop
      vertex -3.15281 14.822 0.5
      vertex -2.92804 14.5972 -0.5
      vertex -2.92804 14.5972 0.5
    endloop
  endfacet
  facet normal -0.453993 -0.891005 0
    outer loop
      vertex -3.43604 14.9663 -0.5
      vertex -3.15281 14.822 0.5
      vertex -3.43604 14.9663 0.5
    endloop
  endfacet
  facet normal -0.453993 -0.891005 -0
    outer loop
      vertex -3.15281 14.822 0.5
      vertex -3.43604 14.9663 -0.5
      vertex -3.15281 14.822 -0.5
    endloop
  endfacet
  facet normal 0.156434 -0.987688 0
    outer loop
      vertex -4.06396 -13.0337 -0.5
      vertex -3.75 -12.984 0.5
      vertex -4.06396 -13.0337 0.5
    endloop
  endfacet
  facet normal 0.156434 -0.987688 0
    outer loop
      vertex -3.75 -12.984 0.5
      vertex -4.06396 -13.0337 -0.5
      vertex -3.75 -12.984 -0.5
    endloop
  endfacet
  facet normal 0.987688 0.156434 0
    outer loop
      vertex -4.71627 -14.314 0.5
      vertex -4.766 -14 -0.5
      vertex -4.766 -14 0.5
    endloop
  endfacet
  facet normal 0.987688 0.156434 0
    outer loop
      vertex -4.766 -14 -0.5
      vertex -4.71627 -14.314 0.5
      vertex -4.71627 -14.314 -0.5
    endloop
  endfacet
  facet normal -0.987688 -0.156434 0
    outer loop
      vertex -2.734 -14 -0.5
      vertex -2.78373 -13.686 0.5
      vertex -2.78373 -13.686 -0.5
    endloop
  endfacet
  facet normal -0.987688 -0.156434 0
    outer loop
      vertex -2.78373 -13.686 0.5
      vertex -2.734 -14 -0.5
      vertex -2.734 -14 0.5
    endloop
  endfacet
  facet normal 0.891005 -0.453993 0
    outer loop
      vertex -4.71627 -13.686 0.5
      vertex -4.57196 -13.4028 -0.5
      vertex -4.57196 -13.4028 0.5
    endloop
  endfacet
  facet normal 0.891005 -0.453993 0
    outer loop
      vertex -4.57196 -13.4028 -0.5
      vertex -4.71627 -13.686 0.5
      vertex -4.71627 -13.686 -0.5
    endloop
  endfacet
  facet normal 0.453993 -0.891005 0
    outer loop
      vertex -4.34719 -13.178 -0.5
      vertex -4.06396 -13.0337 0.5
      vertex -4.34719 -13.178 0.5
    endloop
  endfacet
  facet normal 0.453993 -0.891005 0
    outer loop
      vertex -4.06396 -13.0337 0.5
      vertex -4.34719 -13.178 -0.5
      vertex -4.06396 -13.0337 -0.5
    endloop
  endfacet
  facet normal 0.987688 -0.156434 0
    outer loop
      vertex -4.766 -14 0.5
      vertex -4.71627 -13.686 -0.5
      vertex -4.71627 -13.686 0.5
    endloop
  endfacet
  facet normal 0.987688 -0.156434 0
    outer loop
      vertex -4.71627 -13.686 -0.5
      vertex -4.766 -14 0.5
      vertex -4.766 -14 -0.5
    endloop
  endfacet
  facet normal 0.453993 0.891005 -0
    outer loop
      vertex -4.06396 -14.9663 -0.5
      vertex -4.34719 -14.822 0.5
      vertex -4.06396 -14.9663 0.5
    endloop
  endfacet
  facet normal 0.453993 0.891005 0
    outer loop
      vertex -4.34719 -14.822 0.5
      vertex -4.06396 -14.9663 -0.5
      vertex -4.34719 -14.822 -0.5
    endloop
  endfacet
  facet normal 0.156434 0.987688 -0
    outer loop
      vertex -3.75 -15.016 -0.5
      vertex -4.06396 -14.9663 0.5
      vertex -3.75 -15.016 0.5
    endloop
  endfacet
  facet normal 0.156434 0.987688 0
    outer loop
      vertex -4.06396 -14.9663 0.5
      vertex -3.75 -15.016 -0.5
      vertex -4.06396 -14.9663 -0.5
    endloop
  endfacet
  facet normal 0.891005 0.453993 0
    outer loop
      vertex -4.57196 -14.5972 0.5
      vertex -4.71627 -14.314 -0.5
      vertex -4.71627 -14.314 0.5
    endloop
  endfacet
  facet normal 0.891005 0.453993 0
    outer loop
      vertex -4.71627 -14.314 -0.5
      vertex -4.57196 -14.5972 0.5
      vertex -4.57196 -14.5972 -0.5
    endloop
  endfacet
  facet normal -0.156434 -0.987688 0
    outer loop
      vertex -3.75 -12.984 -0.5
      vertex -3.43604 -13.0337 0.5
      vertex -3.75 -12.984 0.5
    endloop
  endfacet
  facet normal -0.156434 -0.987688 -0
    outer loop
      vertex -3.43604 -13.0337 0.5
      vertex -3.75 -12.984 -0.5
      vertex -3.43604 -13.0337 -0.5
    endloop
  endfacet
  facet normal -0.987688 0.156434 0
    outer loop
      vertex -2.78373 -14.314 -0.5
      vertex -2.734 -14 0.5
      vertex -2.734 -14 -0.5
    endloop
  endfacet
  facet normal -0.987688 0.156434 0
    outer loop
      vertex -2.734 -14 0.5
      vertex -2.78373 -14.314 -0.5
      vertex -2.78373 -14.314 0.5
    endloop
  endfacet
  facet normal -0.453993 0.891005 0
    outer loop
      vertex -3.15281 -14.822 -0.5
      vertex -3.43604 -14.9663 0.5
      vertex -3.15281 -14.822 0.5
    endloop
  endfacet
  facet normal -0.453993 0.891005 0
    outer loop
      vertex -3.43604 -14.9663 0.5
      vertex -3.15281 -14.822 -0.5
      vertex -3.43604 -14.9663 -0.5
    endloop
  endfacet
  facet normal 0.707107 -0.707107 0
    outer loop
      vertex -4.57196 -13.4028 0.5
      vertex -4.34719 -13.178 -0.5
      vertex -4.34719 -13.178 0.5
    endloop
  endfacet
  facet normal 0.707107 -0.707107 0
    outer loop
      vertex -4.34719 -13.178 -0.5
      vertex -4.57196 -13.4028 0.5
      vertex -4.57196 -13.4028 -0.5
    endloop
  endfacet
  facet normal -0.156434 0.987688 0
    outer loop
      vertex -3.43604 -14.9663 -0.5
      vertex -3.75 -15.016 0.5
      vertex -3.43604 -14.9663 0.5
    endloop
  endfacet
  facet normal -0.156434 0.987688 0
    outer loop
      vertex -3.75 -15.016 0.5
      vertex -3.43604 -14.9663 -0.5
      vertex -3.75 -15.016 -0.5
    endloop
  endfacet
  facet normal 0.707107 0.707107 0
    outer loop
      vertex -4.34719 -14.822 0.5
      vertex -4.57196 -14.5972 -0.5
      vertex -4.57196 -14.5972 0.5
    endloop
  endfacet
  facet normal 0.707107 0.707107 0
    outer loop
      vertex -4.57196 -14.5972 -0.5
      vertex -4.34719 -14.822 0.5
      vertex -4.34719 -14.822 -0.5
    endloop
  endfacet
  facet normal -0.891005 -0.453993 0
    outer loop
      vertex -2.78373 -13.686 -0.5
      vertex -2.92804 -13.4028 0.5
      vertex -2.92804 -13.4028 -0.5
    endloop
  endfacet
  facet normal -0.891005 -0.453993 0
    outer loop
      vertex -2.92804 -13.4028 0.5
      vertex -2.78373 -13.686 -0.5
      vertex -2.78373 -13.686 0.5
    endloop
  endfacet
  facet normal -0.707107 0.707107 0
    outer loop
      vertex -3.15281 -14.822 -0.5
      vertex -2.92804 -14.5972 0.5
      vertex -2.92804 -14.5972 -0.5
    endloop
  endfacet
  facet normal -0.707107 0.707107 0
    outer loop
      vertex -2.92804 -14.5972 0.5
      vertex -3.15281 -14.822 -0.5
      vertex -3.15281 -14.822 0.5
    endloop
  endfacet
  facet normal -0.707107 -0.707107 0
    outer loop
      vertex -2.92804 -13.4028 -0.5
      vertex -3.15281 -13.178 0.5
      vertex -3.15281 -13.178 -0.5
    endloop
  endfacet
  facet normal -0.707107 -0.707107 0
    outer loop
      vertex -3.15281 -13.178 0.5
      vertex -2.92804 -13.4028 -0.5
      vertex -2.92804 -13.4028 0.5
    endloop
  endfacet
  facet normal -0.891005 0.453993 0
    outer loop
      vertex -2.92804 -14.5972 -0.5
      vertex -2.78373 -14.314 0.5
      vertex -2.78373 -14.314 -0.5
    endloop
  endfacet
  facet normal -0.891005 0.453993 0
    outer loop
      vertex -2.78373 -14.314 0.5
      vertex -2.92804 -14.5972 -0.5
      vertex -2.92804 -14.5972 0.5
    endloop
  endfacet
  facet normal -0.453993 -0.891005 0
    outer loop
      vertex -3.43604 -13.0337 -0.5
      vertex -3.15281 -13.178 0.5
      vertex -3.43604 -13.0337 0.5
    endloop
  endfacet
  facet normal -0.453993 -0.891005 -0
    outer loop
      vertex -3.15281 -13.178 0.5
      vertex -3.43604 -13.0337 -0.5
      vertex -3.15281 -13.178 -0.5
    endloop
  endfacet
  facet normal 0.156434 -0.987688 0
    outer loop
      vertex 3.43604 -13.0337 -0.5
      vertex 3.75 -12.984 0.5
      vertex 3.43604 -13.0337 0.5
    endloop
  endfacet
  facet normal 0.156434 -0.987688 0
    outer loop
      vertex 3.75 -12.984 0.5
      vertex 3.43604 -13.0337 -0.5
      vertex 3.75 -12.984 -0.5
    endloop
  endfacet
  facet normal 0.156434 0.987688 -0
    outer loop
      vertex 3.75 -15.016 -0.5
      vertex 3.43604 -14.9663 0.5
      vertex 3.75 -15.016 0.5
    endloop
  endfacet
  facet normal 0.156434 0.987688 0
    outer loop
      vertex 3.43604 -14.9663 0.5
      vertex 3.75 -15.016 -0.5
      vertex 3.43604 -14.9663 -0.5
    endloop
  endfacet
  facet normal 0.987688 0.156434 0
    outer loop
      vertex 2.78373 -14.314 0.5
      vertex 2.734 -14 -0.5
      vertex 2.734 -14 0.5
    endloop
  endfacet
  facet normal 0.987688 0.156434 0
    outer loop
      vertex 2.734 -14 -0.5
      vertex 2.78373 -14.314 0.5
      vertex 2.78373 -14.314 -0.5
    endloop
  endfacet
  facet normal -0.987688 -0.156434 0
    outer loop
      vertex 4.766 -14 -0.5
      vertex 4.71627 -13.686 0.5
      vertex 4.71627 -13.686 -0.5
    endloop
  endfacet
  facet normal -0.987688 -0.156434 0
    outer loop
      vertex 4.71627 -13.686 0.5
      vertex 4.766 -14 -0.5
      vertex 4.766 -14 0.5
    endloop
  endfacet
  facet normal -0.453993 -0.891005 0
    outer loop
      vertex 4.06396 -13.0337 -0.5
      vertex 4.34719 -13.178 0.5
      vertex 4.06396 -13.0337 0.5
    endloop
  endfacet
  facet normal -0.453993 -0.891005 -0
    outer loop
      vertex 4.34719 -13.178 0.5
      vertex 4.06396 -13.0337 -0.5
      vertex 4.34719 -13.178 -0.5
    endloop
  endfacet
  facet normal 0.891005 -0.453993 0
    outer loop
      vertex 2.78373 -13.686 0.5
      vertex 2.92804 -13.4028 -0.5
      vertex 2.92804 -13.4028 0.5
    endloop
  endfacet
  facet normal 0.891005 -0.453993 0
    outer loop
      vertex 2.92804 -13.4028 -0.5
      vertex 2.78373 -13.686 0.5
      vertex 2.78373 -13.686 -0.5
    endloop
  endfacet
  facet normal 0.453993 -0.891005 0
    outer loop
      vertex 3.15281 -13.178 -0.5
      vertex 3.43604 -13.0337 0.5
      vertex 3.15281 -13.178 0.5
    endloop
  endfacet
  facet normal 0.453993 -0.891005 0
    outer loop
      vertex 3.43604 -13.0337 0.5
      vertex 3.15281 -13.178 -0.5
      vertex 3.43604 -13.0337 -0.5
    endloop
  endfacet
  facet normal 0.987688 -0.156434 0
    outer loop
      vertex 2.734 -14 0.5
      vertex 2.78373 -13.686 -0.5
      vertex 2.78373 -13.686 0.5
    endloop
  endfacet
  facet normal 0.987688 -0.156434 0
    outer loop
      vertex 2.78373 -13.686 -0.5
      vertex 2.734 -14 0.5
      vertex 2.734 -14 -0.5
    endloop
  endfacet
  facet normal 0.707107 0.707107 0
    outer loop
      vertex 3.15281 -14.822 0.5
      vertex 2.92804 -14.5972 -0.5
      vertex 2.92804 -14.5972 0.5
    endloop
  endfacet
  facet normal 0.707107 0.707107 0
    outer loop
      vertex 2.92804 -14.5972 -0.5
      vertex 3.15281 -14.822 0.5
      vertex 3.15281 -14.822 -0.5
    endloop
  endfacet
  facet normal 0.453993 0.891005 -0
    outer loop
      vertex 3.43604 -14.9663 -0.5
      vertex 3.15281 -14.822 0.5
      vertex 3.43604 -14.9663 0.5
    endloop
  endfacet
  facet normal 0.453993 0.891005 0
    outer loop
      vertex 3.15281 -14.822 0.5
      vertex 3.43604 -14.9663 -0.5
      vertex 3.15281 -14.822 -0.5
    endloop
  endfacet
  facet normal 0.891005 0.453993 0
    outer loop
      vertex 2.92804 -14.5972 0.5
      vertex 2.78373 -14.314 -0.5
      vertex 2.78373 -14.314 0.5
    endloop
  endfacet
  facet normal 0.891005 0.453993 0
    outer loop
      vertex 2.78373 -14.314 -0.5
      vertex 2.92804 -14.5972 0.5
      vertex 2.92804 -14.5972 -0.5
    endloop
  endfacet
  facet normal -0.156434 -0.987688 0
    outer loop
      vertex 3.75 -12.984 -0.5
      vertex 4.06396 -13.0337 0.5
      vertex 3.75 -12.984 0.5
    endloop
  endfacet
  facet normal -0.156434 -0.987688 -0
    outer loop
      vertex 4.06396 -13.0337 0.5
      vertex 3.75 -12.984 -0.5
      vertex 4.06396 -13.0337 -0.5
    endloop
  endfacet
  facet normal 0.707107 -0.707107 0
    outer loop
      vertex 2.92804 -13.4028 0.5
      vertex 3.15281 -13.178 -0.5
      vertex 3.15281 -13.178 0.5
    endloop
  endfacet
  facet normal 0.707107 -0.707107 0
    outer loop
      vertex 3.15281 -13.178 -0.5
      vertex 2.92804 -13.4028 0.5
      vertex 2.92804 -13.4028 -0.5
    endloop
  endfacet
  facet normal -0.891005 -0.453993 0
    outer loop
      vertex 4.71627 -13.686 -0.5
      vertex 4.57196 -13.4028 0.5
      vertex 4.57196 -13.4028 -0.5
    endloop
  endfacet
  facet normal -0.891005 -0.453993 0
    outer loop
      vertex 4.57196 -13.4028 0.5
      vertex 4.71627 -13.686 -0.5
      vertex 4.71627 -13.686 0.5
    endloop
  endfacet
  facet normal -0.707107 -0.707107 0
    outer loop
      vertex 4.57196 -13.4028 -0.5
      vertex 4.34719 -13.178 0.5
      vertex 4.34719 -13.178 -0.5
    endloop
  endfacet
  facet normal -0.707107 -0.707107 0
    outer loop
      vertex 4.34719 -13.178 0.5
      vertex 4.57196 -13.4028 -0.5
      vertex 4.57196 -13.4028 0.5
    endloop
  endfacet
  facet normal -0.453993 0.891005 0
    outer loop
      vertex 4.34719 -14.822 -0.5
      vertex 4.06396 -14.9663 0.5
      vertex 4.34719 -14.822 0.5
    endloop
  endfacet
  facet normal -0.453993 0.891005 0
    outer loop
      vertex 4.06396 -14.9663 0.5
      vertex 4.34719 -14.822 -0.5
      vertex 4.06396 -14.9663 -0.5
    endloop
  endfacet
  facet normal -0.156434 0.987688 0
    outer loop
      vertex 4.06396 -14.9663 -0.5
      vertex 3.75 -15.016 0.5
      vertex 4.06396 -14.9663 0.5
    endloop
  endfacet
  facet normal -0.156434 0.987688 0
    outer loop
      vertex 3.75 -15.016 0.5
      vertex 4.06396 -14.9663 -0.5
      vertex 3.75 -15.016 -0.5
    endloop
  endfacet
  facet normal -0.987688 0.156434 0
    outer loop
      vertex 4.71627 -14.314 -0.5
      vertex 4.766 -14 0.5
      vertex 4.766 -14 -0.5
    endloop
  endfacet
  facet normal -0.987688 0.156434 0
    outer loop
      vertex 4.766 -14 0.5
      vertex 4.71627 -14.314 -0.5
      vertex 4.71627 -14.314 0.5
    endloop
  endfacet
  facet normal -0.707107 0.707107 0
    outer loop
      vertex 4.34719 -14.822 -0.5
      vertex 4.57196 -14.5972 0.5
      vertex 4.57196 -14.5972 -0.5
    endloop
  endfacet
  facet normal -0.707107 0.707107 0
    outer loop
      vertex 4.57196 -14.5972 0.5
      vertex 4.34719 -14.822 -0.5
      vertex 4.34719 -14.822 0.5
    endloop
  endfacet
  facet normal -0.891005 0.453993 0
    outer loop
      vertex 4.57196 -14.5972 -0.5
      vertex 4.71627 -14.314 0.5
      vertex 4.71627 -14.314 -0.5
    endloop
  endfacet
  facet normal -0.891005 0.453993 0
    outer loop
      vertex 4.71627 -14.314 0.5
      vertex 4.57196 -14.5972 -0.5
      vertex 4.57196 -14.5972 0.5
    endloop
  endfacet
  facet normal 0.156434 -0.987688 0
    outer loop
      vertex 3.43604 14.9663 -0.5
      vertex 3.75 15.016 0.5
      vertex 3.43604 14.9663 0.5
    endloop
  endfacet
  facet normal 0.156434 -0.987688 0
    outer loop
      vertex 3.75 15.016 0.5
      vertex 3.43604 14.9663 -0.5
      vertex 3.75 15.016 -0.5
    endloop
  endfacet
  facet normal 0.156434 0.987688 -0
    outer loop
      vertex 3.75 12.984 -0.5
      vertex 3.43604 13.0337 0.5
      vertex 3.75 12.984 0.5
    endloop
  endfacet
  facet normal 0.156434 0.987688 0
    outer loop
      vertex 3.43604 13.0337 0.5
      vertex 3.75 12.984 -0.5
      vertex 3.43604 13.0337 -0.5
    endloop
  endfacet
  facet normal 0.987688 0.156434 0
    outer loop
      vertex 2.78373 13.686 0.5
      vertex 2.734 14 -0.5
      vertex 2.734 14 0.5
    endloop
  endfacet
  facet normal 0.987688 0.156434 0
    outer loop
      vertex 2.734 14 -0.5
      vertex 2.78373 13.686 0.5
      vertex 2.78373 13.686 -0.5
    endloop
  endfacet
  facet normal -0.987688 -0.156434 0
    outer loop
      vertex 4.766 14 -0.5
      vertex 4.71627 14.314 0.5
      vertex 4.71627 14.314 -0.5
    endloop
  endfacet
  facet normal -0.987688 -0.156434 0
    outer loop
      vertex 4.71627 14.314 0.5
      vertex 4.766 14 -0.5
      vertex 4.766 14 0.5
    endloop
  endfacet
  facet normal -0.453993 -0.891005 0
    outer loop
      vertex 4.06396 14.9663 -0.5
      vertex 4.34719 14.822 0.5
      vertex 4.06396 14.9663 0.5
    endloop
  endfacet
  facet normal -0.453993 -0.891005 -0
    outer loop
      vertex 4.34719 14.822 0.5
      vertex 4.06396 14.9663 -0.5
      vertex 4.34719 14.822 -0.5
    endloop
  endfacet
  facet normal 0.891005 -0.453993 0
    outer loop
      vertex 2.78373 14.314 0.5
      vertex 2.92804 14.5972 -0.5
      vertex 2.92804 14.5972 0.5
    endloop
  endfacet
  facet normal 0.891005 -0.453993 0
    outer loop
      vertex 2.92804 14.5972 -0.5
      vertex 2.78373 14.314 0.5
      vertex 2.78373 14.314 -0.5
    endloop
  endfacet
  facet normal 0.453993 -0.891005 0
    outer loop
      vertex 3.15281 14.822 -0.5
      vertex 3.43604 14.9663 0.5
      vertex 3.15281 14.822 0.5
    endloop
  endfacet
  facet normal 0.453993 -0.891005 0
    outer loop
      vertex 3.43604 14.9663 0.5
      vertex 3.15281 14.822 -0.5
      vertex 3.43604 14.9663 -0.5
    endloop
  endfacet
  facet normal 0.987688 -0.156434 0
    outer loop
      vertex 2.734 14 0.5
      vertex 2.78373 14.314 -0.5
      vertex 2.78373 14.314 0.5
    endloop
  endfacet
  facet normal 0.987688 -0.156434 0
    outer loop
      vertex 2.78373 14.314 -0.5
      vertex 2.734 14 0.5
      vertex 2.734 14 -0.5
    endloop
  endfacet
  facet normal 0.707107 0.707107 0
    outer loop
      vertex 3.15281 13.178 0.5
      vertex 2.92804 13.4028 -0.5
      vertex 2.92804 13.4028 0.5
    endloop
  endfacet
  facet normal 0.707107 0.707107 0
    outer loop
      vertex 2.92804 13.4028 -0.5
      vertex 3.15281 13.178 0.5
      vertex 3.15281 13.178 -0.5
    endloop
  endfacet
  facet normal 0.453993 0.891005 -0
    outer loop
      vertex 3.43604 13.0337 -0.5
      vertex 3.15281 13.178 0.5
      vertex 3.43604 13.0337 0.5
    endloop
  endfacet
  facet normal 0.453993 0.891005 0
    outer loop
      vertex 3.15281 13.178 0.5
      vertex 3.43604 13.0337 -0.5
      vertex 3.15281 13.178 -0.5
    endloop
  endfacet
  facet normal 0.891005 0.453993 0
    outer loop
      vertex 2.92804 13.4028 0.5
      vertex 2.78373 13.686 -0.5
      vertex 2.78373 13.686 0.5
    endloop
  endfacet
  facet normal 0.891005 0.453993 0
    outer loop
      vertex 2.78373 13.686 -0.5
      vertex 2.92804 13.4028 0.5
      vertex 2.92804 13.4028 -0.5
    endloop
  endfacet
  facet normal 0.707107 -0.707107 0
    outer loop
      vertex 2.92804 14.5972 0.5
      vertex 3.15281 14.822 -0.5
      vertex 3.15281 14.822 0.5
    endloop
  endfacet
  facet normal 0.707107 -0.707107 0
    outer loop
      vertex 3.15281 14.822 -0.5
      vertex 2.92804 14.5972 0.5
      vertex 2.92804 14.5972 -0.5
    endloop
  endfacet
  facet normal -0.891005 -0.453993 0
    outer loop
      vertex 4.71627 14.314 -0.5
      vertex 4.57196 14.5972 0.5
      vertex 4.57196 14.5972 -0.5
    endloop
  endfacet
  facet normal -0.891005 -0.453993 0
    outer loop
      vertex 4.57196 14.5972 0.5
      vertex 4.71627 14.314 -0.5
      vertex 4.71627 14.314 0.5
    endloop
  endfacet
  facet normal -0.156434 -0.987688 0
    outer loop
      vertex 3.75 15.016 -0.5
      vertex 4.06396 14.9663 0.5
      vertex 3.75 15.016 0.5
    endloop
  endfacet
  facet normal -0.156434 -0.987688 -0
    outer loop
      vertex 4.06396 14.9663 0.5
      vertex 3.75 15.016 -0.5
      vertex 4.06396 14.9663 -0.5
    endloop
  endfacet
  facet normal -0.156434 0.987688 0
    outer loop
      vertex 4.06396 13.0337 -0.5
      vertex 3.75 12.984 0.5
      vertex 4.06396 13.0337 0.5
    endloop
  endfacet
  facet normal -0.156434 0.987688 0
    outer loop
      vertex 3.75 12.984 0.5
      vertex 4.06396 13.0337 -0.5
      vertex 3.75 12.984 -0.5
    endloop
  endfacet
  facet normal -0.707107 -0.707107 0
    outer loop
      vertex 4.57196 14.5972 -0.5
      vertex 4.34719 14.822 0.5
      vertex 4.34719 14.822 -0.5
    endloop
  endfacet
  facet normal -0.707107 -0.707107 0
    outer loop
      vertex 4.34719 14.822 0.5
      vertex 4.57196 14.5972 -0.5
      vertex 4.57196 14.5972 0.5
    endloop
  endfacet
  facet normal -0.891005 0.453993 0
    outer loop
      vertex 4.57196 13.4028 -0.5
      vertex 4.71627 13.686 0.5
      vertex 4.71627 13.686 -0.5
    endloop
  endfacet
  facet normal -0.891005 0.453993 0
    outer loop
      vertex 4.71627 13.686 0.5
      vertex 4.57196 13.4028 -0.5
      vertex 4.57196 13.4028 0.5
    endloop
  endfacet
  facet normal -0.453993 0.891005 0
    outer loop
      vertex 4.34719 13.178 -0.5
      vertex 4.06396 13.0337 0.5
      vertex 4.34719 13.178 0.5
    endloop
  endfacet
  facet normal -0.453993 0.891005 0
    outer loop
      vertex 4.06396 13.0337 0.5
      vertex 4.34719 13.178 -0.5
      vertex 4.06396 13.0337 -0.5
    endloop
  endfacet
  facet normal -0.707107 0.707107 0
    outer loop
      vertex 4.34719 13.178 -0.5
      vertex 4.57196 13.4028 0.5
      vertex 4.57196 13.4028 -0.5
    endloop
  endfacet
  facet normal -0.707107 0.707107 0
    outer loop
      vertex 4.57196 13.4028 0.5
      vertex 4.34719 13.178 -0.5
      vertex 4.34719 13.178 0.5
    endloop
  endfacet
  facet normal -0.987688 0.156434 0
    outer loop
      vertex 4.71627 13.686 -0.5
      vertex 4.766 14 0.5
      vertex 4.766 14 -0.5
    endloop
  endfacet
  facet normal -0.987688 0.156434 0
    outer loop
      vertex 4.766 14 0.5
      vertex 4.71627 13.686 -0.5
      vertex 4.71627 13.686 0.5
    endloop
  endfacet
endsolid OpenSCAD_Model
