G75*
%MOIN*%
%OFA0B0*%
%FSLAX25Y25*%
%IPPOS*%
%LPD*%
%AMOC8*
5,1,8,0,0,1.08239X$1,22.5*
%
%ADD10R,0.08858X0.08858*%
%ADD11C,0.08858*%
%ADD12C,0.12661*%
%ADD13OC8,0.12661*%
%ADD14R,0.05937X0.05937*%
%ADD15C,0.05937*%
%ADD16C,0.06260*%
%ADD17R,0.06260X0.06260*%
%ADD18C,0.05543*%
%ADD19C,0.00500*%
%ADD20C,0.07400*%
%ADD21R,0.06600X0.06600*%
%ADD22C,0.06600*%
%ADD23C,0.07500*%
%ADD24C,0.04756*%
%ADD25C,0.07000*%
%ADD26OC8,0.07000*%
%ADD27OC8,0.05200*%
%ADD28C,0.01000*%
%ADD29C,0.03962*%
D10*
X0250545Y0199442D03*
D11*
X0250545Y0179757D03*
X0297789Y0179757D03*
X0297789Y0199442D03*
D12*
X0637750Y0178458D03*
D13*
X0587750Y0178458D03*
D14*
X0239327Y0337046D03*
X0184797Y0158694D03*
X0153365Y0158385D03*
X0122546Y0159645D03*
D15*
X0122546Y0149803D03*
X0153365Y0148543D03*
X0184797Y0148851D03*
X0268855Y0337046D03*
D16*
X0530918Y0224003D03*
D17*
X0530918Y0268294D03*
D18*
X0514488Y0214954D03*
X0506188Y0214954D03*
X0506188Y0204954D03*
X0514488Y0204954D03*
X0514588Y0456922D03*
X0506288Y0456922D03*
X0506288Y0466922D03*
X0514588Y0466922D03*
X0099018Y0410163D03*
X0089018Y0410163D03*
X0079018Y0410163D03*
X0079018Y0284179D03*
X0089018Y0284179D03*
X0099018Y0284179D03*
X0099000Y0150321D03*
X0089000Y0150321D03*
X0079000Y0150321D03*
D19*
X0575441Y0435983D02*
X0577242Y0435983D01*
X0576342Y0435983D02*
X0576342Y0438686D01*
X0575441Y0437785D01*
X0578387Y0438235D02*
X0578838Y0438686D01*
X0579739Y0438686D01*
X0580189Y0438235D01*
X0578387Y0436434D01*
X0578838Y0435983D01*
X0579739Y0435983D01*
X0580189Y0436434D01*
X0580189Y0438235D01*
X0578387Y0438235D02*
X0578387Y0436434D01*
X0581334Y0435983D02*
X0583135Y0438686D01*
X0584280Y0438235D02*
X0584731Y0438686D01*
X0585632Y0438686D01*
X0586082Y0438235D01*
X0586082Y0437785D01*
X0584280Y0435983D01*
X0586082Y0435983D01*
X0587227Y0436434D02*
X0589029Y0438235D01*
X0589029Y0436434D01*
X0588578Y0435983D01*
X0587677Y0435983D01*
X0587227Y0436434D01*
X0587227Y0438235D01*
X0587677Y0438686D01*
X0588578Y0438686D01*
X0589029Y0438235D01*
X0590173Y0435983D02*
X0591975Y0438686D01*
X0593120Y0438235D02*
X0593570Y0438686D01*
X0594471Y0438686D01*
X0594922Y0438235D01*
X0593120Y0436434D01*
X0593570Y0435983D01*
X0594471Y0435983D01*
X0594922Y0436434D01*
X0594922Y0438235D01*
X0596067Y0438235D02*
X0596067Y0437785D01*
X0596517Y0437334D01*
X0597868Y0437334D01*
X0597868Y0436434D02*
X0597868Y0438235D01*
X0597418Y0438686D01*
X0596517Y0438686D01*
X0596067Y0438235D01*
X0596067Y0436434D02*
X0596517Y0435983D01*
X0597418Y0435983D01*
X0597868Y0436434D01*
X0593120Y0436434D02*
X0593120Y0438235D01*
D20*
X0611491Y0438733D02*
X0618891Y0438733D01*
X0618891Y0448733D02*
X0611491Y0448733D01*
X0611491Y0458733D02*
X0618891Y0458733D01*
X0618891Y0468733D02*
X0611491Y0468733D01*
X0611491Y0478733D02*
X0618891Y0478733D01*
X0618891Y0488733D02*
X0611491Y0488733D01*
X0611491Y0498733D02*
X0618891Y0498733D01*
X0618891Y0508733D02*
X0611491Y0508733D01*
X0558891Y0508733D02*
X0551491Y0508733D01*
X0551491Y0498733D02*
X0558891Y0498733D01*
X0558891Y0488733D02*
X0551491Y0488733D01*
X0551491Y0478733D02*
X0558891Y0478733D01*
X0558891Y0468733D02*
X0551491Y0468733D01*
X0551491Y0458733D02*
X0558891Y0458733D01*
X0558891Y0448733D02*
X0551491Y0448733D01*
X0551491Y0438733D02*
X0558891Y0438733D01*
D21*
X0207238Y0179680D03*
X0163931Y0183617D03*
D22*
X0163931Y0193617D03*
X0207238Y0189680D03*
D23*
X0361646Y0216588D02*
X0369146Y0216588D01*
X0369146Y0225525D02*
X0361646Y0225525D01*
X0361323Y0443261D02*
X0368823Y0443261D01*
X0368823Y0454698D02*
X0361323Y0454698D01*
D24*
X0235691Y0164855D03*
X0236345Y0149410D03*
X0206030Y0149410D03*
X0205376Y0164855D03*
D25*
X0201684Y0443752D03*
X0191684Y0443752D03*
X0181684Y0443752D03*
X0171684Y0443752D03*
X0161684Y0443752D03*
X0151684Y0443752D03*
X0151684Y0503752D03*
X0161684Y0503752D03*
X0171684Y0503752D03*
X0181684Y0503752D03*
X0191684Y0503752D03*
X0201684Y0503752D03*
X0211684Y0503752D03*
X0221684Y0503752D03*
X0231684Y0503752D03*
X0241684Y0503752D03*
X0251684Y0503752D03*
X0261684Y0503752D03*
X0221684Y0453752D03*
X0211684Y0453752D03*
X0211684Y0443752D03*
X0221684Y0443752D03*
X0231684Y0443752D03*
X0241684Y0443752D03*
X0251684Y0443752D03*
X0261684Y0443752D03*
D26*
X0271684Y0448752D03*
X0271684Y0458752D03*
X0271684Y0468752D03*
X0271684Y0478752D03*
X0271684Y0488752D03*
X0271684Y0498752D03*
D27*
X0222238Y0379245D03*
X0192238Y0379245D03*
X0192238Y0292631D03*
X0222238Y0292631D03*
X0436333Y0296568D03*
X0436333Y0284757D03*
X0466333Y0284757D03*
X0466333Y0296568D03*
X0466333Y0375308D03*
X0466333Y0387119D03*
X0436333Y0387119D03*
X0436333Y0375308D03*
D28*
X0118907Y0145938D02*
X0096907Y0145938D01*
X0092907Y0149938D01*
X0089907Y0149938D01*
X0089000Y0150321D01*
X0098907Y0150938D02*
X0099000Y0150321D01*
X0099907Y0150938D01*
X0113907Y0150938D01*
X0121907Y0158938D01*
X0122546Y0159645D01*
X0122907Y0158938D01*
X0152907Y0158938D01*
X0153365Y0158385D01*
X0153907Y0158938D01*
X0183907Y0158938D01*
X0184797Y0158694D01*
X0184907Y0157938D01*
X0197907Y0144938D01*
X0271907Y0144938D01*
X0353907Y0226938D01*
X0326907Y0253938D01*
X0326907Y0416938D01*
X0329907Y0419938D01*
X0391907Y0419938D01*
X0423907Y0387938D01*
X0435907Y0387938D01*
X0436333Y0387119D01*
X0436907Y0387938D01*
X0436907Y0399938D01*
X0469907Y0432938D01*
X0469907Y0434938D01*
X0467907Y0437938D02*
X0501907Y0471938D01*
X0551907Y0471938D01*
X0554907Y0468938D01*
X0555191Y0468733D01*
X0558907Y0441938D02*
X0555907Y0438938D01*
X0555191Y0438733D01*
X0554907Y0438938D01*
X0541907Y0438938D01*
X0514907Y0465938D01*
X0514588Y0466922D01*
X0513907Y0465938D01*
X0506907Y0458938D01*
X0506907Y0456938D01*
X0506288Y0456922D01*
X0513907Y0455938D02*
X0514588Y0456922D01*
X0513907Y0455938D02*
X0466907Y0408938D01*
X0466907Y0387938D01*
X0466333Y0387119D01*
X0461907Y0384938D02*
X0461907Y0421938D01*
X0505907Y0465938D01*
X0506288Y0466922D01*
X0470907Y0478938D02*
X0315907Y0478938D01*
X0293907Y0486938D02*
X0269907Y0510938D01*
X0150907Y0510938D01*
X0145907Y0505938D01*
X0145907Y0501938D01*
X0160907Y0486938D01*
X0160907Y0443938D01*
X0161684Y0443752D01*
X0205907Y0437938D02*
X0109907Y0437938D01*
X0082907Y0410938D01*
X0079907Y0410938D01*
X0079018Y0410163D01*
X0151684Y0503752D02*
X0151907Y0503938D01*
X0153907Y0503938D01*
X0158907Y0508938D01*
X0268907Y0508938D01*
X0276907Y0500938D01*
X0276907Y0482938D01*
X0409907Y0482938D01*
X0442907Y0515938D01*
X0562907Y0515938D01*
X0569907Y0508938D01*
X0614907Y0508938D01*
X0615191Y0508733D01*
X0615191Y0488733D02*
X0615907Y0487938D01*
X0617907Y0487938D01*
X0624907Y0480938D01*
X0624907Y0446938D01*
X0620907Y0442938D01*
X0619907Y0442938D01*
X0615907Y0438938D01*
X0615191Y0438733D01*
X0614907Y0438938D01*
X0603907Y0438938D01*
X0600907Y0441938D01*
X0558907Y0441938D01*
X0606907Y0468938D02*
X0561907Y0513938D01*
X0510907Y0513938D01*
X0445907Y0448938D01*
X0349907Y0448938D01*
X0278907Y0377938D01*
X0278907Y0364938D01*
X0247907Y0333938D01*
X0248907Y0329938D02*
X0237907Y0329938D01*
X0210907Y0356938D01*
X0210907Y0383938D01*
X0222238Y0379245D02*
X0222907Y0379938D01*
X0222907Y0396938D01*
X0270907Y0444938D01*
X0270907Y0447938D01*
X0271684Y0448752D01*
X0271907Y0448938D01*
X0271907Y0457938D01*
X0271684Y0458752D01*
X0270907Y0458938D01*
X0208907Y0458938D01*
X0164907Y0502938D01*
X0161907Y0502938D01*
X0161684Y0503752D01*
X0211684Y0443752D02*
X0210907Y0442938D01*
X0205907Y0437938D01*
X0216907Y0428938D02*
X0079907Y0291938D01*
X0079907Y0284938D01*
X0079018Y0284179D01*
X0093907Y0282938D02*
X0079907Y0268938D01*
X0079907Y0150938D01*
X0079000Y0150321D01*
X0098907Y0150938D02*
X0098907Y0283938D01*
X0099018Y0284179D01*
X0093907Y0282938D02*
X0093907Y0300938D01*
X0220907Y0427938D01*
X0220907Y0442938D01*
X0221684Y0443752D01*
X0258907Y0442938D02*
X0195907Y0379938D01*
X0192907Y0379938D01*
X0192238Y0379245D01*
X0191907Y0378938D01*
X0191907Y0292938D01*
X0192238Y0292631D01*
X0222238Y0292631D02*
X0222907Y0291938D01*
X0262907Y0251938D01*
X0293907Y0251938D01*
X0353907Y0226938D02*
X0357907Y0230938D01*
X0370907Y0230938D01*
X0423907Y0283938D01*
X0435907Y0283938D01*
X0436333Y0284757D01*
X0436907Y0284938D01*
X0436907Y0295938D01*
X0436333Y0296568D01*
X0461907Y0286938D02*
X0461907Y0259938D01*
X0505907Y0215938D01*
X0506188Y0214954D01*
X0506907Y0207938D02*
X0513907Y0214938D01*
X0514488Y0214954D01*
X0518907Y0216938D02*
X0518907Y0209938D01*
X0514907Y0205938D01*
X0514488Y0204954D01*
X0506907Y0205938D02*
X0506188Y0204954D01*
X0506907Y0205938D02*
X0506907Y0207938D01*
X0518907Y0216938D02*
X0466907Y0268938D01*
X0466907Y0283938D01*
X0466333Y0284757D01*
X0461907Y0286938D02*
X0465907Y0290938D01*
X0465907Y0295938D01*
X0466333Y0296568D01*
X0530918Y0224003D02*
X0531907Y0223938D01*
X0541907Y0223938D01*
X0586907Y0178938D01*
X0587750Y0178458D01*
X0466333Y0375308D02*
X0465907Y0375938D01*
X0465907Y0380938D01*
X0461907Y0384938D01*
X0436907Y0386938D02*
X0436907Y0375938D01*
X0436333Y0375308D01*
X0436907Y0386938D02*
X0436333Y0387119D01*
X0467907Y0437938D02*
X0344907Y0437938D01*
X0324907Y0417938D01*
X0324907Y0405938D01*
X0248907Y0329938D01*
X0239327Y0337046D02*
X0239907Y0337938D01*
X0276907Y0374938D01*
X0276907Y0482938D01*
X0261684Y0443752D02*
X0260907Y0442938D01*
X0258907Y0442938D01*
X0207238Y0189680D02*
X0207907Y0188938D01*
X0231907Y0164938D01*
X0234907Y0164938D01*
X0235691Y0164855D01*
X0236907Y0159938D02*
X0209907Y0159938D01*
X0205907Y0163938D01*
X0205376Y0164855D01*
X0205907Y0151938D02*
X0164907Y0192938D01*
X0163931Y0193617D01*
X0205907Y0151938D02*
X0205907Y0149938D01*
X0206030Y0149410D01*
X0184797Y0148851D02*
X0183907Y0148938D01*
X0153907Y0148938D01*
X0153365Y0148543D01*
X0152907Y0148938D01*
X0122907Y0148938D01*
X0122546Y0149803D01*
X0121907Y0148938D01*
X0118907Y0145938D01*
X0236345Y0149410D02*
X0236907Y0149938D01*
X0236907Y0159938D01*
X0249907Y0172938D01*
X0249907Y0178938D01*
X0250545Y0179757D01*
X0555191Y0498733D02*
X0555907Y0498938D01*
X0556907Y0499938D01*
X0570907Y0499938D01*
X0606907Y0468938D02*
X0614907Y0468938D01*
X0615191Y0468733D01*
D29*
X0570907Y0499938D03*
X0470907Y0478938D03*
X0469907Y0434938D03*
X0315907Y0478938D03*
X0293907Y0486938D03*
X0216907Y0428938D03*
X0210907Y0383938D03*
X0247907Y0333938D03*
X0293907Y0251938D03*
M02*
