G75*
%MOIN*%
%OFA0B0*%
%FSLAX25Y25*%
%IPPOS*%
%LPD*%
%AMOC8*
5,1,8,0,0,1.08239X$1,22.5*
%
%ADD10R,0.08858X0.08858*%
%ADD11C,0.08858*%
%ADD12C,0.12661*%
%ADD13OC8,0.12661*%
%ADD14R,0.05937X0.05937*%
%ADD15C,0.05937*%
%ADD16C,0.06260*%
%ADD17R,0.06260X0.06260*%
%ADD18C,0.05543*%
%ADD19C,0.07400*%
%ADD20R,0.06600X0.06600*%
%ADD21C,0.06600*%
%ADD22C,0.07500*%
%ADD23C,0.04756*%
%ADD24C,0.07000*%
%ADD25OC8,0.07000*%
%ADD26OC8,0.05200*%
%ADD27C,0.01000*%
%ADD28C,0.03962*%
D10*
X0250545Y0199442D03*
D11*
X0250545Y0179757D03*
X0297789Y0179757D03*
X0297789Y0199442D03*
D12*
X0637750Y0178458D03*
D13*
X0587750Y0178458D03*
D14*
X0239327Y0337046D03*
X0184797Y0158694D03*
X0153365Y0158385D03*
X0122546Y0159645D03*
D15*
X0153365Y0148543D03*
X0122546Y0149803D03*
X0184797Y0148851D03*
X0268855Y0337046D03*
D16*
X0530918Y0224003D03*
D17*
X0530918Y0268294D03*
D18*
X0514488Y0214954D03*
X0506188Y0214954D03*
X0506188Y0204954D03*
X0514488Y0204954D03*
X0514588Y0456922D03*
X0506288Y0456922D03*
X0506288Y0466922D03*
X0514588Y0466922D03*
X0099018Y0410163D03*
X0089018Y0410163D03*
X0079018Y0410163D03*
X0079018Y0284179D03*
X0089018Y0284179D03*
X0099018Y0284179D03*
X0099000Y0150321D03*
X0089000Y0150321D03*
X0079000Y0150321D03*
D19*
X0551491Y0438733D02*
X0558891Y0438733D01*
X0558891Y0448733D02*
X0551491Y0448733D01*
X0551491Y0458733D02*
X0558891Y0458733D01*
X0558891Y0468733D02*
X0551491Y0468733D01*
X0551491Y0478733D02*
X0558891Y0478733D01*
X0558891Y0488733D02*
X0551491Y0488733D01*
X0551491Y0498733D02*
X0558891Y0498733D01*
X0558891Y0508733D02*
X0551491Y0508733D01*
X0611491Y0508733D02*
X0618891Y0508733D01*
X0618891Y0498733D02*
X0611491Y0498733D01*
X0611491Y0488733D02*
X0618891Y0488733D01*
X0618891Y0478733D02*
X0611491Y0478733D01*
X0611491Y0468733D02*
X0618891Y0468733D01*
X0618891Y0458733D02*
X0611491Y0458733D01*
X0611491Y0448733D02*
X0618891Y0448733D01*
X0618891Y0438733D02*
X0611491Y0438733D01*
D20*
X0207238Y0179680D03*
X0163931Y0183617D03*
D21*
X0163931Y0193617D03*
X0207238Y0189680D03*
D22*
X0361646Y0216588D02*
X0369146Y0216588D01*
X0369146Y0225525D02*
X0361646Y0225525D01*
X0361323Y0443261D02*
X0368823Y0443261D01*
X0368823Y0454698D02*
X0361323Y0454698D01*
D23*
X0235691Y0164855D03*
X0236345Y0149410D03*
X0206030Y0149410D03*
X0205376Y0164855D03*
D24*
X0201684Y0443752D03*
X0191684Y0443752D03*
X0181684Y0443752D03*
X0171684Y0443752D03*
X0161684Y0443752D03*
X0151684Y0443752D03*
X0151684Y0503752D03*
X0161684Y0503752D03*
X0171684Y0503752D03*
X0181684Y0503752D03*
X0191684Y0503752D03*
X0201684Y0503752D03*
X0211684Y0503752D03*
X0221684Y0503752D03*
X0231684Y0503752D03*
X0241684Y0503752D03*
X0251684Y0503752D03*
X0261684Y0503752D03*
X0221684Y0453752D03*
X0211684Y0453752D03*
X0211684Y0443752D03*
X0221684Y0443752D03*
X0231684Y0443752D03*
X0241684Y0443752D03*
X0251684Y0443752D03*
X0261684Y0443752D03*
D25*
X0271684Y0448752D03*
X0271684Y0458752D03*
X0271684Y0468752D03*
X0271684Y0478752D03*
X0271684Y0488752D03*
X0271684Y0498752D03*
D26*
X0222238Y0379245D03*
X0192238Y0379245D03*
X0192238Y0292631D03*
X0222238Y0292631D03*
X0436333Y0296568D03*
X0436333Y0284757D03*
X0466333Y0284757D03*
X0466333Y0296568D03*
X0466333Y0375308D03*
X0466333Y0387119D03*
X0436333Y0387119D03*
X0436333Y0375308D03*
D27*
X0465907Y0387938D02*
X0466333Y0387119D01*
X0465907Y0387938D02*
X0433907Y0419938D01*
X0329907Y0419938D01*
X0326907Y0416938D01*
X0326907Y0387938D01*
X0270907Y0331938D01*
X0266907Y0331938D01*
X0263907Y0334938D01*
X0263907Y0338938D01*
X0266907Y0341938D01*
X0266907Y0445938D01*
X0263907Y0448938D01*
X0248907Y0448938D01*
X0243907Y0443938D01*
X0241907Y0443938D01*
X0241684Y0443752D01*
X0231684Y0443752D02*
X0230907Y0442938D01*
X0216907Y0428938D01*
X0214907Y0407938D02*
X0181907Y0440938D01*
X0181907Y0442938D01*
X0181684Y0443752D01*
X0171684Y0443752D02*
X0170907Y0443938D01*
X0165907Y0448938D01*
X0148907Y0448938D01*
X0145907Y0445938D01*
X0145907Y0203938D01*
X0163907Y0185938D01*
X0163907Y0183938D01*
X0163931Y0183617D01*
X0184907Y0148938D02*
X0199907Y0163938D01*
X0204907Y0163938D01*
X0205376Y0164855D01*
X0207238Y0179680D02*
X0207907Y0179938D01*
X0207907Y0182938D01*
X0214907Y0189938D01*
X0214907Y0407938D01*
X0210907Y0383938D02*
X0151907Y0442938D01*
X0151684Y0443752D01*
X0160907Y0481938D02*
X0089907Y0410938D01*
X0089018Y0410163D01*
X0088907Y0409938D01*
X0088907Y0284938D01*
X0089018Y0284179D01*
X0088907Y0283938D01*
X0088907Y0150938D01*
X0089000Y0150321D01*
X0184797Y0148851D02*
X0184907Y0148938D01*
X0243907Y0194938D02*
X0243907Y0203938D01*
X0247907Y0207938D01*
X0247907Y0333938D01*
X0249907Y0336938D02*
X0251907Y0334938D01*
X0251907Y0200938D01*
X0250907Y0199938D01*
X0250545Y0199442D01*
X0245907Y0192938D02*
X0329907Y0192938D01*
X0361907Y0224938D01*
X0364907Y0224938D01*
X0365396Y0225525D01*
X0365396Y0216588D02*
X0365907Y0215938D01*
X0371907Y0209938D01*
X0616907Y0209938D01*
X0662907Y0255938D01*
X0662907Y0432938D01*
X0617907Y0477938D01*
X0615907Y0477938D01*
X0615191Y0478733D01*
X0614907Y0497938D02*
X0615191Y0498733D01*
X0614907Y0497938D02*
X0612907Y0497938D01*
X0564907Y0449938D01*
X0564907Y0436938D01*
X0560907Y0432938D01*
X0471907Y0432938D01*
X0469907Y0434938D01*
X0457907Y0470938D02*
X0494907Y0507938D01*
X0554907Y0507938D01*
X0555191Y0508733D01*
X0564907Y0510938D02*
X0564907Y0486938D01*
X0555907Y0477938D01*
X0555191Y0478733D01*
X0554907Y0487938D02*
X0552907Y0487938D01*
X0543907Y0478938D01*
X0470907Y0478938D01*
X0457907Y0470938D02*
X0312907Y0470938D01*
X0305907Y0477938D01*
X0305907Y0491938D01*
X0279907Y0517938D01*
X0247907Y0517938D01*
X0233907Y0503938D01*
X0231907Y0503938D01*
X0231684Y0503752D01*
X0223907Y0503938D02*
X0239907Y0519938D01*
X0280907Y0519938D01*
X0307907Y0492938D01*
X0307907Y0478938D01*
X0313907Y0472938D01*
X0448907Y0472938D01*
X0495907Y0519938D01*
X0555907Y0519938D01*
X0564907Y0510938D01*
X0566907Y0513938D02*
X0566907Y0458938D01*
X0555907Y0447938D01*
X0555191Y0448733D01*
X0555191Y0458733D02*
X0554907Y0458938D01*
X0551907Y0461938D01*
X0504907Y0461938D01*
X0500907Y0465938D01*
X0314907Y0465938D01*
X0293907Y0486938D01*
X0309907Y0479938D02*
X0314907Y0474938D01*
X0447907Y0474938D01*
X0494907Y0521938D01*
X0558907Y0521938D01*
X0566907Y0513938D01*
X0570907Y0512938D02*
X0559907Y0523938D01*
X0493907Y0523938D01*
X0452907Y0482938D01*
X0314907Y0482938D01*
X0313907Y0483938D01*
X0313907Y0495938D01*
X0283907Y0525938D01*
X0215907Y0525938D01*
X0193907Y0503938D01*
X0191907Y0503938D01*
X0191684Y0503752D01*
X0201684Y0503752D02*
X0201907Y0503938D01*
X0221907Y0523938D01*
X0282907Y0523938D01*
X0311907Y0494938D01*
X0311907Y0482938D01*
X0315907Y0478938D01*
X0309907Y0479938D02*
X0309907Y0493938D01*
X0281907Y0521938D01*
X0223907Y0521938D01*
X0211907Y0509938D01*
X0211907Y0503938D01*
X0211684Y0503752D01*
X0221684Y0503752D02*
X0221907Y0503938D01*
X0223907Y0503938D01*
X0181684Y0503752D02*
X0180907Y0502938D01*
X0180907Y0491938D01*
X0099907Y0410938D01*
X0099018Y0410163D01*
X0098907Y0409938D01*
X0098907Y0284938D01*
X0099018Y0284179D01*
X0222238Y0292631D02*
X0222907Y0292938D01*
X0222907Y0320938D01*
X0238907Y0336938D01*
X0239327Y0337046D01*
X0249907Y0336938D02*
X0249907Y0375938D01*
X0191907Y0433938D01*
X0191907Y0442938D01*
X0191684Y0443752D01*
X0160907Y0481938D02*
X0160907Y0502938D01*
X0161684Y0503752D01*
X0251684Y0443752D02*
X0251907Y0442938D01*
X0251907Y0337938D01*
X0289907Y0299938D01*
X0289907Y0250938D01*
X0306907Y0233938D01*
X0487907Y0233938D01*
X0505907Y0215938D01*
X0506188Y0214954D01*
X0506188Y0204954D02*
X0505907Y0204938D01*
X0344907Y0204938D01*
X0327907Y0187938D01*
X0258907Y0187938D01*
X0250907Y0179938D01*
X0250545Y0179757D01*
X0245907Y0192938D02*
X0243907Y0194938D01*
X0293907Y0251938D02*
X0391907Y0251938D01*
X0407907Y0267938D01*
X0530907Y0267938D01*
X0530918Y0268294D01*
X0506907Y0204938D02*
X0506188Y0204954D01*
X0506907Y0204938D02*
X0524907Y0186938D01*
X0628907Y0186938D01*
X0636907Y0178938D01*
X0637750Y0178458D01*
X0615907Y0427938D02*
X0380907Y0427938D01*
X0365907Y0442938D01*
X0365073Y0443261D01*
X0365907Y0453938D02*
X0365073Y0454698D01*
X0365907Y0453938D02*
X0388907Y0430938D01*
X0561907Y0430938D01*
X0578907Y0447938D01*
X0614907Y0447938D01*
X0615191Y0448733D01*
X0615907Y0457938D02*
X0615191Y0458733D01*
X0615907Y0457938D02*
X0617907Y0457938D01*
X0624907Y0450938D01*
X0624907Y0436938D01*
X0615907Y0427938D01*
X0554907Y0487938D02*
X0555191Y0488733D01*
X0570907Y0499938D02*
X0570907Y0512938D01*
X0506288Y0456922D02*
X0505907Y0456938D01*
X0374907Y0456938D01*
X0370907Y0460938D01*
X0273907Y0460938D01*
X0271907Y0458938D01*
X0271684Y0458752D01*
X0271684Y0448752D02*
X0270907Y0447938D01*
X0268907Y0445938D01*
X0268907Y0337938D01*
X0268855Y0337046D01*
D28*
X0247907Y0333938D03*
X0210907Y0383938D03*
X0216907Y0428938D03*
X0293907Y0486938D03*
X0315907Y0478938D03*
X0470907Y0478938D03*
X0469907Y0434938D03*
X0570907Y0499938D03*
X0293907Y0251938D03*
M02*
