%
M48
M72
T01C0.02362
T02C0.02756
T03C0.03200
T04C0.03543
T05C0.03937
T06C0.04000
T07C0.04173
T08C0.05000
T09C0.05906
T10C0.07874
T11C0.08661
T12C0.09843
T13C0.11811
%
T01
X293907Y251938
X247907Y333938
X210907Y383938
X216907Y428938
X293907Y486938
X315907Y478938
X470907Y478938
X469907Y434938
X570907Y499938
T02
X235691Y164855
X236345Y149410
X206030Y149410
X205376Y164855
T03
X192238Y292631
X222238Y292631
X222238Y379245
X192238Y379245
X436333Y375308
X436333Y387119
X466333Y387119
X466333Y375308
X466333Y296568
X466333Y284757
X436333Y284757
X436333Y296568
T04
X506188Y214954
X514488Y214954
X514488Y204954
X506188Y204954
X506288Y456922
X514588Y456922
X514588Y466922
X506288Y466922
X207238Y189680
X207238Y179680
X163931Y183617
X163931Y193617
X99000Y150321
X89000Y150321
X79000Y150321
X79018Y284179
X89018Y284179
X99018Y284179
X99018Y410163
X89018Y410163
X79018Y410163
T05
X153365Y148543
X153365Y158385
X122546Y159645
X122546Y149803
X184797Y148851
X184797Y158694
X239327Y337046
X268855Y337046
X221684Y453752
X211684Y453752
T06
X211684Y443752
X221684Y443752
X231684Y443752
X241684Y443752
X251684Y443752
X261684Y443752
X271684Y448752
X271684Y458752
X271684Y468752
X271684Y478752
X271684Y488752
X271684Y498752
X261684Y503752
X251684Y503752
X241684Y503752
X231684Y503752
X221684Y503752
X211684Y503752
X201684Y503752
X191684Y503752
X181684Y503752
X171684Y503752
X161684Y503752
X151684Y503752
X151684Y443752
X161684Y443752
X171684Y443752
X181684Y443752
X191684Y443752
X201684Y443752
X555191Y448733
X555191Y458733
X555191Y468733
X555191Y478733
X555191Y488733
X555191Y498733
X555191Y508733
X615191Y508733
X615191Y498733
X615191Y488733
X615191Y478733
X615191Y468733
X615191Y458733
X615191Y448733
X615191Y438733
X555191Y438733
T07
X530918Y268294
X530918Y224003
T08
X365396Y225525
X365396Y216588
X365073Y443261
X365073Y454698
T09
X297789Y199442
X297789Y179757
X250545Y179757
X250545Y199442
T10
X274167Y207316
X274167Y171883
X120624Y305938
X120624Y365938
X585191Y365938
X585191Y305938
T11
X587750Y178458
X637750Y178458
T12
X642868Y280623
X613144Y280820
X613144Y391056
X642671Y391056
X375545Y390859
X346215Y390859
X346608Y280623
X375545Y280820
T13
X391066Y155781
X336735Y155781
X336412Y515505
X390742Y515505
M30
