solid OpenSCAD_Model
  facet normal -1 0 0
    outer loop
      vertex -3.9845 -2.873 -3.042
      vertex -3.9845 -2.873 3.042
      vertex -3.9845 2.873 -3.042
    endloop
  endfacet
  facet normal -1 0 0
    outer loop
      vertex -3.9845 2.873 -3.042
      vertex -3.9845 -2.873 3.042
      vertex -3.9845 2.873 3.042
    endloop
  endfacet
  facet normal 0 -1 0
    outer loop
      vertex -2.1455 -2.873 -1.638
      vertex -3.9845 -2.873 -3.042
      vertex 3.9845 -2.873 -3.042
    endloop
  endfacet
  facet normal 0 -1 0
    outer loop
      vertex 2.1455 -2.873 -1.638
      vertex -2.1455 -2.873 -1.638
      vertex 3.9845 -2.873 -3.042
    endloop
  endfacet
  facet normal 0 -1 0
    outer loop
      vertex -3.9845 -2.873 3.042
      vertex -3.9845 -2.873 -3.042
      vertex -2.1455 -2.873 -1.638
    endloop
  endfacet
  facet normal 0 -1 0
    outer loop
      vertex 3.9845 -2.873 3.042
      vertex -3.9845 -2.873 3.042
      vertex -2.1455 -2.873 1.638
    endloop
  endfacet
  facet normal 0 -1 0
    outer loop
      vertex 3.9845 -2.873 3.042
      vertex 2.1455 -2.873 1.638
      vertex 3.9845 -2.873 -3.042
    endloop
  endfacet
  facet normal 0 -1 0
    outer loop
      vertex 3.9845 -2.873 3.042
      vertex -2.1455 -2.873 1.638
      vertex 2.1455 -2.873 1.638
    endloop
  endfacet
  facet normal 0 -1 0
    outer loop
      vertex 2.1455 -2.873 1.638
      vertex 2.1455 -2.873 -1.638
      vertex 3.9845 -2.873 -3.042
    endloop
  endfacet
  facet normal 0 -1 0
    outer loop
      vertex -2.1455 -2.873 -1.638
      vertex -2.1455 -2.873 1.638
      vertex -3.9845 -2.873 3.042
    endloop
  endfacet
  facet normal 0 0 -1
    outer loop
      vertex -3.9845 -2.873 -3.042
      vertex -3.9845 2.873 -3.042
      vertex 3.9845 -2.873 -3.042
    endloop
  endfacet
  facet normal 0 0 -1
    outer loop
      vertex 3.9845 -2.873 -3.042
      vertex -3.9845 2.873 -3.042
      vertex 3.9845 2.873 -3.042
    endloop
  endfacet
  facet normal 0 1 0
    outer loop
      vertex 3.065 2.873 -2.34
      vertex 3.9845 2.873 -3.042
      vertex -3.065 2.873 -2.34
    endloop
  endfacet
  facet normal 0 1 0
    outer loop
      vertex 3.065 2.873 2.34
      vertex -3.9845 2.873 3.042
      vertex 3.9845 2.873 3.042
    endloop
  endfacet
  facet normal 0 1 0
    outer loop
      vertex -3.9845 2.873 -3.042
      vertex -3.9845 2.873 3.042
      vertex -3.065 2.873 2.34
    endloop
  endfacet
  facet normal 0 1 0
    outer loop
      vertex -3.9845 2.873 -3.042
      vertex -3.065 2.873 2.34
      vertex -3.065 2.873 -2.34
    endloop
  endfacet
  facet normal 0 1 0
    outer loop
      vertex -3.9845 2.873 -3.042
      vertex -3.065 2.873 -2.34
      vertex 3.9845 2.873 -3.042
    endloop
  endfacet
  facet normal 0 1 0
    outer loop
      vertex 3.9845 2.873 -3.042
      vertex 3.065 2.873 -2.34
      vertex 3.9845 2.873 3.042
    endloop
  endfacet
  facet normal 0 1 0
    outer loop
      vertex 3.065 2.873 -2.34
      vertex 3.065 2.873 2.34
      vertex 3.9845 2.873 3.042
    endloop
  endfacet
  facet normal 0 1 0
    outer loop
      vertex -3.065 2.873 2.34
      vertex -3.9845 2.873 3.042
      vertex 3.065 2.873 2.34
    endloop
  endfacet
  facet normal 0 0 1
    outer loop
      vertex -3.9845 2.873 3.042
      vertex -3.9845 -2.873 3.042
      vertex 3.9845 -2.873 3.042
    endloop
  endfacet
  facet normal 0 0 1
    outer loop
      vertex 3.9845 2.873 3.042
      vertex -3.9845 2.873 3.042
      vertex 3.9845 -2.873 3.042
    endloop
  endfacet
  facet normal 1 0 0
    outer loop
      vertex 3.9845 -2.873 3.042
      vertex 3.9845 -2.873 -3.042
      vertex 3.9845 2.873 -3.042
    endloop
  endfacet
  facet normal 1 0 0
    outer loop
      vertex 3.9845 2.873 3.042
      vertex 3.9845 -2.873 3.042
      vertex 3.9845 2.873 -3.042
    endloop
  endfacet
  facet normal 1 0 0
    outer loop
      vertex -2.1455 -1.21 -1.638
      vertex -2.1455 -1.21 1.638
      vertex -2.1455 -2.873 1.638
    endloop
  endfacet
  facet normal 1 0 0
    outer loop
      vertex -2.1455 -2.873 -1.638
      vertex -2.1455 -1.21 -1.638
      vertex -2.1455 -2.873 1.638
    endloop
  endfacet
  facet normal 0 0 1
    outer loop
      vertex 2.1455 -2.873 -1.638
      vertex 2.1455 -1.21 -1.638
      vertex -2.1455 -1.21 -1.638
    endloop
  endfacet
  facet normal 0 0 1
    outer loop
      vertex -2.1455 -2.873 -1.638
      vertex 2.1455 -2.873 -1.638
      vertex -2.1455 -1.21 -1.638
    endloop
  endfacet
  facet normal -1 0 0
    outer loop
      vertex 2.1455 -1.21 1.638
      vertex 2.1455 -1.21 -1.638
      vertex 2.1455 -2.873 1.638
    endloop
  endfacet
  facet normal -1 0 0
    outer loop
      vertex 2.1455 -2.873 1.638
      vertex 2.1455 -1.21 -1.638
      vertex 2.1455 -2.873 -1.638
    endloop
  endfacet
  facet normal 0 0 -1
    outer loop
      vertex 2.1455 -1.21 1.638
      vertex 2.1455 -2.873 1.638
      vertex -2.1455 -1.21 1.638
    endloop
  endfacet
  facet normal 0 0 -1
    outer loop
      vertex -2.1455 -1.21 1.638
      vertex 2.1455 -2.873 1.638
      vertex -2.1455 -2.873 1.638
    endloop
  endfacet
  facet normal 1 0 0
    outer loop
      vertex -3.065 2.873 -2.34
      vertex -3.065 2.873 2.34
      vertex -3.065 -1.21 2.34
    endloop
  endfacet
  facet normal 1 0 0
    outer loop
      vertex -3.065 -1.21 -2.34
      vertex -3.065 2.873 -2.34
      vertex -3.065 -1.21 2.34
    endloop
  endfacet
  facet normal 0 0 -1
    outer loop
      vertex 3.065 2.873 2.34
      vertex 3.065 -1.21 2.34
      vertex -3.065 2.873 2.34
    endloop
  endfacet
  facet normal 0 0 -1
    outer loop
      vertex -3.065 2.873 2.34
      vertex 3.065 -1.21 2.34
      vertex -3.065 -1.21 2.34
    endloop
  endfacet
  facet normal -1 0 0
    outer loop
      vertex 3.065 2.873 2.34
      vertex 3.065 2.873 -2.34
      vertex 3.065 -1.21 2.34
    endloop
  endfacet
  facet normal -1 0 0
    outer loop
      vertex 3.065 -1.21 2.34
      vertex 3.065 2.873 -2.34
      vertex 3.065 -1.21 -2.34
    endloop
  endfacet
  facet normal 0 0 1
    outer loop
      vertex 3.065 -1.21 -2.34
      vertex 3.065 2.873 -2.34
      vertex -3.065 2.873 -2.34
    endloop
  endfacet
  facet normal 0 0 1
    outer loop
      vertex -3.065 -1.21 -2.34
      vertex 3.065 -1.21 -2.34
      vertex -3.065 2.873 -2.34
    endloop
  endfacet
  facet normal 0 1 0
    outer loop
      vertex -2.1455 -1.21 -1.638
      vertex 3.065 -1.21 -2.34
      vertex -3.065 -1.21 -2.34
    endloop
  endfacet
  facet normal 0 1 0
    outer loop
      vertex 2.1455 -1.21 -1.638
      vertex 3.065 -1.21 -2.34
      vertex -2.1455 -1.21 -1.638
    endloop
  endfacet
  facet normal 0 1 0
    outer loop
      vertex -3.065 -1.21 2.34
      vertex -2.1455 -1.21 -1.638
      vertex -3.065 -1.21 -2.34
    endloop
  endfacet
  facet normal 0 1 0
    outer loop
      vertex 2.1455 -1.21 1.638
      vertex 3.065 -1.21 -2.34
      vertex 2.1455 -1.21 -1.638
    endloop
  endfacet
  facet normal 0 1 0
    outer loop
      vertex 3.065 -1.21 2.34
      vertex 3.065 -1.21 -2.34
      vertex 2.1455 -1.21 1.638
    endloop
  endfacet
  facet normal 0 1 0
    outer loop
      vertex 3.065 -1.21 2.34
      vertex 2.1455 -1.21 1.638
      vertex -3.065 -1.21 2.34
    endloop
  endfacet
  facet normal 0 1 0
    outer loop
      vertex 2.1455 -1.21 1.638
      vertex -2.1455 -1.21 1.638
      vertex -3.065 -1.21 2.34
    endloop
  endfacet
  facet normal 0 1 0
    outer loop
      vertex -2.1455 -1.21 -1.638
      vertex -3.065 -1.21 2.34
      vertex -2.1455 -1.21 1.638
    endloop
  endfacet
endsolid OpenSCAD_Model
