solid OpenSCAD_Model
  facet normal -1 0 0
    outer loop
      vertex -3.9715 -2.86 -3.029
      vertex -3.9715 -2.86 3.029
      vertex -3.9715 2.86 -3.029
    endloop
  endfacet
  facet normal -1 0 0
    outer loop
      vertex -3.9715 2.86 -3.029
      vertex -3.9715 -2.86 3.029
      vertex -3.9715 2.86 3.029
    endloop
  endfacet
  facet normal 0 -1 0
    outer loop
      vertex -2.1385 -2.86 -1.631
      vertex -3.9715 -2.86 -3.029
      vertex 3.9715 -2.86 -3.029
    endloop
  endfacet
  facet normal 0 -1 0
    outer loop
      vertex -3.9715 -2.86 3.029
      vertex -3.9715 -2.86 -3.029
      vertex -2.1385 -2.86 -1.631
    endloop
  endfacet
  facet normal 0 -1 0
    outer loop
      vertex -2.1385 -2.86 1.631
      vertex 2.1385 -2.86 1.631
      vertex -3.9715 -2.86 3.029
    endloop
  endfacet
  facet normal 0 -1 0
    outer loop
      vertex -3.9715 -2.86 3.029
      vertex -2.1385 -2.86 -1.631
      vertex -2.1385 -2.86 1.631
    endloop
  endfacet
  facet normal 0 -1 0
    outer loop
      vertex 3.9715 -2.86 3.029
      vertex 2.1385 -2.86 1.631
      vertex 3.9715 -2.86 -3.029
    endloop
  endfacet
  facet normal 0 -1 0
    outer loop
      vertex 3.9715 -2.86 3.029
      vertex -3.9715 -2.86 3.029
      vertex 2.1385 -2.86 1.631
    endloop
  endfacet
  facet normal 0 -1 0
    outer loop
      vertex 2.1385 -2.86 1.631
      vertex 2.1385 -2.86 -1.631
      vertex 3.9715 -2.86 -3.029
    endloop
  endfacet
  facet normal 0 -1 0
    outer loop
      vertex 2.1385 -2.86 -1.631
      vertex -2.1385 -2.86 -1.631
      vertex 3.9715 -2.86 -3.029
    endloop
  endfacet
  facet normal 0 0 -1
    outer loop
      vertex -3.9715 -2.86 -3.029
      vertex -3.9715 2.86 -3.029
      vertex 3.9715 -2.86 -3.029
    endloop
  endfacet
  facet normal 0 0 -1
    outer loop
      vertex 3.9715 -2.86 -3.029
      vertex -3.9715 2.86 -3.029
      vertex 3.9715 2.86 -3.029
    endloop
  endfacet
  facet normal 0 1 0
    outer loop
      vertex -3.055 2.86 2.33
      vertex -3.9715 2.86 3.029
      vertex 3.9715 2.86 3.029
    endloop
  endfacet
  facet normal 0 1 0
    outer loop
      vertex 3.055 2.86 2.33
      vertex -3.055 2.86 2.33
      vertex 3.9715 2.86 3.029
    endloop
  endfacet
  facet normal 0 1 0
    outer loop
      vertex -3.9715 2.86 -3.029
      vertex -3.9715 2.86 3.029
      vertex -3.055 2.86 -2.33
    endloop
  endfacet
  facet normal 0 1 0
    outer loop
      vertex -3.9715 2.86 -3.029
      vertex -3.055 2.86 -2.33
      vertex 3.9715 2.86 -3.029
    endloop
  endfacet
  facet normal 0 1 0
    outer loop
      vertex 3.055 2.86 2.33
      vertex 3.9715 2.86 -3.029
      vertex 3.055 2.86 -2.33
    endloop
  endfacet
  facet normal 0 1 0
    outer loop
      vertex -3.055 2.86 -2.33
      vertex 3.055 2.86 -2.33
      vertex 3.9715 2.86 -3.029
    endloop
  endfacet
  facet normal 0 1 0
    outer loop
      vertex 3.9715 2.86 -3.029
      vertex 3.055 2.86 2.33
      vertex 3.9715 2.86 3.029
    endloop
  endfacet
  facet normal 0 1 0
    outer loop
      vertex -3.055 2.86 -2.33
      vertex -3.9715 2.86 3.029
      vertex -3.055 2.86 2.33
    endloop
  endfacet
  facet normal 0 0 1
    outer loop
      vertex -3.9715 2.86 3.029
      vertex -3.9715 -2.86 3.029
      vertex 3.9715 -2.86 3.029
    endloop
  endfacet
  facet normal 0 0 1
    outer loop
      vertex 3.9715 2.86 3.029
      vertex -3.9715 2.86 3.029
      vertex 3.9715 -2.86 3.029
    endloop
  endfacet
  facet normal 1 0 0
    outer loop
      vertex 3.9715 -2.86 3.029
      vertex 3.9715 -2.86 -3.029
      vertex 3.9715 2.86 -3.029
    endloop
  endfacet
  facet normal 1 0 0
    outer loop
      vertex 3.9715 2.86 3.029
      vertex 3.9715 -2.86 3.029
      vertex 3.9715 2.86 -3.029
    endloop
  endfacet
  facet normal 1 0 0
    outer loop
      vertex -2.1385 -1.2 -1.631
      vertex -2.1385 -1.2 1.631
      vertex -2.1385 -2.86 1.631
    endloop
  endfacet
  facet normal 1 0 0
    outer loop
      vertex -2.1385 -2.86 -1.631
      vertex -2.1385 -1.2 -1.631
      vertex -2.1385 -2.86 1.631
    endloop
  endfacet
  facet normal 0 0 1
    outer loop
      vertex 2.1385 -2.86 -1.631
      vertex 2.1385 -1.2 -1.631
      vertex -2.1385 -1.2 -1.631
    endloop
  endfacet
  facet normal 0 0 1
    outer loop
      vertex -2.1385 -2.86 -1.631
      vertex 2.1385 -2.86 -1.631
      vertex -2.1385 -1.2 -1.631
    endloop
  endfacet
  facet normal -1 0 0
    outer loop
      vertex 2.1385 -1.2 1.631
      vertex 2.1385 -1.2 -1.631
      vertex 2.1385 -2.86 1.631
    endloop
  endfacet
  facet normal -1 0 0
    outer loop
      vertex 2.1385 -2.86 1.631
      vertex 2.1385 -1.2 -1.631
      vertex 2.1385 -2.86 -1.631
    endloop
  endfacet
  facet normal 0 0 -1
    outer loop
      vertex 2.1385 -1.2 1.631
      vertex 2.1385 -2.86 1.631
      vertex -2.1385 -1.2 1.631
    endloop
  endfacet
  facet normal 0 0 -1
    outer loop
      vertex -2.1385 -1.2 1.631
      vertex 2.1385 -2.86 1.631
      vertex -2.1385 -2.86 1.631
    endloop
  endfacet
  facet normal 1 0 0
    outer loop
      vertex -3.055 2.86 -2.33
      vertex -3.055 2.86 2.33
      vertex -3.055 -1.2 2.33
    endloop
  endfacet
  facet normal 1 0 0
    outer loop
      vertex -3.055 -1.2 -2.33
      vertex -3.055 2.86 -2.33
      vertex -3.055 -1.2 2.33
    endloop
  endfacet
  facet normal 0 0 -1
    outer loop
      vertex 3.055 2.86 2.33
      vertex 3.055 -1.2 2.33
      vertex -3.055 2.86 2.33
    endloop
  endfacet
  facet normal 0 0 -1
    outer loop
      vertex -3.055 2.86 2.33
      vertex 3.055 -1.2 2.33
      vertex -3.055 -1.2 2.33
    endloop
  endfacet
  facet normal -1 0 0
    outer loop
      vertex 3.055 2.86 2.33
      vertex 3.055 2.86 -2.33
      vertex 3.055 -1.2 2.33
    endloop
  endfacet
  facet normal -1 0 0
    outer loop
      vertex 3.055 -1.2 2.33
      vertex 3.055 2.86 -2.33
      vertex 3.055 -1.2 -2.33
    endloop
  endfacet
  facet normal 0 0 1
    outer loop
      vertex 3.055 -1.2 -2.33
      vertex 3.055 2.86 -2.33
      vertex -3.055 2.86 -2.33
    endloop
  endfacet
  facet normal 0 0 1
    outer loop
      vertex -3.055 -1.2 -2.33
      vertex 3.055 -1.2 -2.33
      vertex -3.055 2.86 -2.33
    endloop
  endfacet
  facet normal 0 1 0
    outer loop
      vertex -2.1385 -1.2 1.631
      vertex -3.055 -1.2 2.33
      vertex 2.1385 -1.2 1.631
    endloop
  endfacet
  facet normal 0 1 0
    outer loop
      vertex -2.1385 -1.2 -1.631
      vertex 3.055 -1.2 -2.33
      vertex -3.055 -1.2 -2.33
    endloop
  endfacet
  facet normal 0 1 0
    outer loop
      vertex -3.055 -1.2 2.33
      vertex -2.1385 -1.2 -1.631
      vertex -3.055 -1.2 -2.33
    endloop
  endfacet
  facet normal 0 1 0
    outer loop
      vertex 3.055 -1.2 2.33
      vertex 3.055 -1.2 -2.33
      vertex 2.1385 -1.2 -1.631
    endloop
  endfacet
  facet normal 0 1 0
    outer loop
      vertex 3.055 -1.2 2.33
      vertex 2.1385 -1.2 -1.631
      vertex 2.1385 -1.2 1.631
    endloop
  endfacet
  facet normal 0 1 0
    outer loop
      vertex 3.055 -1.2 2.33
      vertex 2.1385 -1.2 1.631
      vertex -3.055 -1.2 2.33
    endloop
  endfacet
  facet normal 0 1 0
    outer loop
      vertex -3.055 -1.2 2.33
      vertex -2.1385 -1.2 1.631
      vertex -2.1385 -1.2 -1.631
    endloop
  endfacet
  facet normal 0 1 0
    outer loop
      vertex 2.1385 -1.2 -1.631
      vertex 3.055 -1.2 -2.33
      vertex -2.1385 -1.2 -1.631
    endloop
  endfacet
endsolid OpenSCAD_Model
