  0
SECTION
  2
BLOCKS
  0
ENDSEC
  0
SECTION
  2
ENTITIES
  0
LINE
  8
0
 10
-38.273
 11
-38.223
 20
-14
 21
-13.686
  0
LINE
  8
0
 10
-38.223
 11
-38.078
 20
-13.686
 21
-13.403
  0
LINE
  8
0
 10
-38.078
 11
-37.854
 20
-13.403
 21
-13.178
  0
LINE
  8
0
 10
-37.854
 11
-37.57
 20
-13.178
 21
-13.034
  0
LINE
  8
0
 10
-37.57
 11
-37.257
 20
-13.034
 21
-12.984
  0
LINE
  8
0
 10
-37.257
 11
-36.943
 20
-12.984
 21
-13.034
  0
LINE
  8
0
 10
-36.943
 11
-36.659
 20
-13.034
 21
-13.178
  0
LINE
  8
0
 10
-36.659
 11
-36.435
 20
-13.178
 21
-13.403
  0
LINE
  8
0
 10
-36.435
 11
-36.29
 20
-13.403
 21
-13.686
  0
LINE
  8
0
 10
-36.29
 11
-36.241
 20
-13.686
 21
-14
  0
LINE
  8
0
 10
-36.241
 11
-36.29
 20
-14
 21
-14.314
  0
LINE
  8
0
 10
-36.29
 11
-36.435
 20
-14.314
 21
-14.597
  0
LINE
  8
0
 10
-36.435
 11
-36.659
 20
-14.597
 21
-14.822
  0
LINE
  8
0
 10
-36.659
 11
-36.943
 20
-14.822
 21
-14.966
  0
LINE
  8
0
 10
-36.943
 11
-37.257
 20
-14.966
 21
-15.016
  0
LINE
  8
0
 10
-37.257
 11
-37.57
 20
-15.016
 21
-14.966
  0
LINE
  8
0
 10
-37.57
 11
-37.854
 20
-14.966
 21
-14.822
  0
LINE
  8
0
 10
-37.854
 11
-38.078
 20
-14.822
 21
-14.597
  0
LINE
  8
0
 10
-38.078
 11
-38.223
 20
-14.597
 21
-14.314
  0
LINE
  8
0
 10
-38.223
 11
-38.273
 20
-14.314
 21
-14
  0
LINE
  8
0
 10
-38.273
 11
-38.223
 20
14
 21
14.314
  0
LINE
  8
0
 10
-38.223
 11
-38.078
 20
14.314
 21
14.597
  0
LINE
  8
0
 10
-38.078
 11
-37.854
 20
14.597
 21
14.822
  0
LINE
  8
0
 10
-37.854
 11
-37.57
 20
14.822
 21
14.966
  0
LINE
  8
0
 10
-37.57
 11
-37.256
 20
14.966
 21
15.016
  0
LINE
  8
0
 10
-37.256
 11
-36.943
 20
15.016
 21
14.966
  0
LINE
  8
0
 10
-36.943
 11
-36.659
 20
14.966
 21
14.822
  0
LINE
  8
0
 10
-36.659
 11
-36.435
 20
14.822
 21
14.597
  0
LINE
  8
0
 10
-36.435
 11
-36.29
 20
14.597
 21
14.314
  0
LINE
  8
0
 10
-36.29
 11
-36.241
 20
14.314
 21
14
  0
LINE
  8
0
 10
-36.241
 11
-36.29
 20
14
 21
13.686
  0
LINE
  8
0
 10
-36.29
 11
-36.435
 20
13.686
 21
13.403
  0
LINE
  8
0
 10
-36.435
 11
-36.659
 20
13.403
 21
13.178
  0
LINE
  8
0
 10
-36.659
 11
-36.943
 20
13.178
 21
13.034
  0
LINE
  8
0
 10
-36.943
 11
-37.256
 20
13.034
 21
12.984
  0
LINE
  8
0
 10
-37.256
 11
-37.57
 20
12.984
 21
13.034
  0
LINE
  8
0
 10
-37.57
 11
-37.854
 20
13.034
 21
13.178
  0
LINE
  8
0
 10
-37.854
 11
-38.078
 20
13.178
 21
13.403
  0
LINE
  8
0
 10
-38.078
 11
-38.223
 20
13.403
 21
13.686
  0
LINE
  8
0
 10
-38.223
 11
-38.273
 20
13.686
 21
14
  0
LINE
  8
0
 10
-30.773
 11
-30.723
 20
-14
 21
-13.686
  0
LINE
  8
0
 10
-30.723
 11
-30.578
 20
-13.686
 21
-13.403
  0
LINE
  8
0
 10
-30.578
 11
-30.354
 20
-13.403
 21
-13.178
  0
LINE
  8
0
 10
-30.354
 11
-30.07
 20
-13.178
 21
-13.034
  0
LINE
  8
0
 10
-30.07
 11
-29.757
 20
-13.034
 21
-12.984
  0
LINE
  8
0
 10
-29.757
 11
-29.443
 20
-12.984
 21
-13.034
  0
LINE
  8
0
 10
-29.443
 11
-29.159
 20
-13.034
 21
-13.178
  0
LINE
  8
0
 10
-29.159
 11
-28.935
 20
-13.178
 21
-13.403
  0
LINE
  8
0
 10
-28.935
 11
-28.79
 20
-13.403
 21
-13.686
  0
LINE
  8
0
 10
-28.79
 11
-28.741
 20
-13.686
 21
-14
  0
LINE
  8
0
 10
-28.741
 11
-28.79
 20
-14
 21
-14.314
  0
LINE
  8
0
 10
-28.79
 11
-28.935
 20
-14.314
 21
-14.597
  0
LINE
  8
0
 10
-28.935
 11
-29.159
 20
-14.597
 21
-14.822
  0
LINE
  8
0
 10
-29.159
 11
-29.443
 20
-14.822
 21
-14.966
  0
LINE
  8
0
 10
-29.443
 11
-29.757
 20
-14.966
 21
-15.016
  0
LINE
  8
0
 10
-29.757
 11
-30.07
 20
-15.016
 21
-14.966
  0
LINE
  8
0
 10
-30.07
 11
-30.354
 20
-14.966
 21
-14.822
  0
LINE
  8
0
 10
-30.354
 11
-30.578
 20
-14.822
 21
-14.597
  0
LINE
  8
0
 10
-30.578
 11
-30.723
 20
-14.597
 21
-14.314
  0
LINE
  8
0
 10
-30.723
 11
-30.773
 20
-14.314
 21
-14
  0
LINE
  8
0
 10
-30.773
 11
-30.723
 20
14
 21
14.314
  0
LINE
  8
0
 10
-30.723
 11
-30.578
 20
14.314
 21
14.597
  0
LINE
  8
0
 10
-30.578
 11
-30.354
 20
14.597
 21
14.822
  0
LINE
  8
0
 10
-30.354
 11
-30.07
 20
14.822
 21
14.966
  0
LINE
  8
0
 10
-30.07
 11
-29.757
 20
14.966
 21
15.016
  0
LINE
  8
0
 10
-29.757
 11
-29.443
 20
15.016
 21
14.966
  0
LINE
  8
0
 10
-29.443
 11
-29.159
 20
14.966
 21
14.822
  0
LINE
  8
0
 10
-29.159
 11
-28.935
 20
14.822
 21
14.597
  0
LINE
  8
0
 10
-28.935
 11
-28.79
 20
14.597
 21
14.314
  0
LINE
  8
0
 10
-28.79
 11
-28.741
 20
14.314
 21
14
  0
LINE
  8
0
 10
-28.741
 11
-28.79
 20
14
 21
13.686
  0
LINE
  8
0
 10
-28.79
 11
-28.935
 20
13.686
 21
13.403
  0
LINE
  8
0
 10
-28.935
 11
-29.159
 20
13.403
 21
13.178
  0
LINE
  8
0
 10
-29.159
 11
-29.443
 20
13.178
 21
13.034
  0
LINE
  8
0
 10
-29.443
 11
-29.757
 20
13.034
 21
12.984
  0
LINE
  8
0
 10
-29.757
 11
-30.07
 20
12.984
 21
13.034
  0
LINE
  8
0
 10
-30.07
 11
-30.354
 20
13.034
 21
13.178
  0
LINE
  8
0
 10
-30.354
 11
-30.578
 20
13.178
 21
13.403
  0
LINE
  8
0
 10
-30.578
 11
-30.723
 20
13.403
 21
13.686
  0
LINE
  8
0
 10
-30.723
 11
-30.773
 20
13.686
 21
14
  0
LINE
  8
0
 10
-41.007
 11
-41.006
 20
-20
 21
20
  0
LINE
  8
0
 10
-41.006
 11
-26.007
 20
20
 21
20
  0
LINE
  8
0
 10
-26.007
 11
-26.007
 20
20
 21
5.92
  0
LINE
  8
0
 10
-26.007
 11
26.007
 20
5.92
 21
5.92
  0
LINE
  8
0
 10
26.007
 11
26.007
 20
5.92
 21
20
  0
LINE
  8
0
 10
26.007
 11
41.007
 20
20
 21
20
  0
LINE
  8
0
 10
41.007
 11
41.006
 20
20
 21
-20
  0
LINE
  8
0
 10
41.006
 11
26.007
 20
-20
 21
-20
  0
LINE
  8
0
 10
26.007
 11
26.007
 20
-20
 21
-5.92
  0
LINE
  8
0
 10
26.007
 11
-26.007
 20
-5.92
 21
-5.92
  0
LINE
  8
0
 10
-26.007
 11
-26.007
 20
-5.92
 21
-20
  0
LINE
  8
0
 10
-26.007
 11
-41.007
 20
-20
 21
-20
  0
LINE
  8
0
 10
28.741
 11
28.79
 20
-14
 21
-13.686
  0
LINE
  8
0
 10
28.79
 11
28.935
 20
-13.686
 21
-13.403
  0
LINE
  8
0
 10
28.935
 11
29.159
 20
-13.403
 21
-13.178
  0
LINE
  8
0
 10
29.159
 11
29.443
 20
-13.178
 21
-13.034
  0
LINE
  8
0
 10
29.443
 11
29.757
 20
-13.034
 21
-12.984
  0
LINE
  8
0
 10
29.757
 11
30.07
 20
-12.984
 21
-13.034
  0
LINE
  8
0
 10
30.07
 11
30.354
 20
-13.034
 21
-13.178
  0
LINE
  8
0
 10
30.354
 11
30.578
 20
-13.178
 21
-13.403
  0
LINE
  8
0
 10
30.578
 11
30.723
 20
-13.403
 21
-13.686
  0
LINE
  8
0
 10
30.723
 11
30.773
 20
-13.686
 21
-14
  0
LINE
  8
0
 10
30.773
 11
30.723
 20
-14
 21
-14.314
  0
LINE
  8
0
 10
30.723
 11
30.578
 20
-14.314
 21
-14.597
  0
LINE
  8
0
 10
30.578
 11
30.354
 20
-14.597
 21
-14.822
  0
LINE
  8
0
 10
30.354
 11
30.07
 20
-14.822
 21
-14.966
  0
LINE
  8
0
 10
30.07
 11
29.757
 20
-14.966
 21
-15.016
  0
LINE
  8
0
 10
29.757
 11
29.443
 20
-15.016
 21
-14.966
  0
LINE
  8
0
 10
29.443
 11
29.159
 20
-14.966
 21
-14.822
  0
LINE
  8
0
 10
29.159
 11
28.935
 20
-14.822
 21
-14.597
  0
LINE
  8
0
 10
28.935
 11
28.79
 20
-14.597
 21
-14.314
  0
LINE
  8
0
 10
28.79
 11
28.741
 20
-14.314
 21
-14
  0
LINE
  8
0
 10
28.741
 11
28.79
 20
14
 21
14.314
  0
LINE
  8
0
 10
28.79
 11
28.935
 20
14.314
 21
14.597
  0
LINE
  8
0
 10
28.935
 11
29.159
 20
14.597
 21
14.822
  0
LINE
  8
0
 10
29.159
 11
29.443
 20
14.822
 21
14.966
  0
LINE
  8
0
 10
29.443
 11
29.757
 20
14.966
 21
15.016
  0
LINE
  8
0
 10
29.757
 11
30.07
 20
15.016
 21
14.966
  0
LINE
  8
0
 10
30.07
 11
30.354
 20
14.966
 21
14.822
  0
LINE
  8
0
 10
30.354
 11
30.578
 20
14.822
 21
14.597
  0
LINE
  8
0
 10
30.578
 11
30.723
 20
14.597
 21
14.314
  0
LINE
  8
0
 10
30.723
 11
30.773
 20
14.314
 21
14
  0
LINE
  8
0
 10
30.773
 11
30.723
 20
14
 21
13.686
  0
LINE
  8
0
 10
30.723
 11
30.578
 20
13.686
 21
13.403
  0
LINE
  8
0
 10
30.578
 11
30.354
 20
13.403
 21
13.178
  0
LINE
  8
0
 10
30.354
 11
30.07
 20
13.178
 21
13.034
  0
LINE
  8
0
 10
30.07
 11
29.757
 20
13.034
 21
12.984
  0
LINE
  8
0
 10
29.757
 11
29.443
 20
12.984
 21
13.034
  0
LINE
  8
0
 10
29.443
 11
29.159
 20
13.034
 21
13.178
  0
LINE
  8
0
 10
29.159
 11
28.935
 20
13.178
 21
13.403
  0
LINE
  8
0
 10
28.935
 11
28.79
 20
13.403
 21
13.686
  0
LINE
  8
0
 10
28.79
 11
28.741
 20
13.686
 21
14
  0
LINE
  8
0
 10
36.241
 11
36.29
 20
-14
 21
-13.686
  0
LINE
  8
0
 10
36.29
 11
36.435
 20
-13.686
 21
-13.403
  0
LINE
  8
0
 10
36.435
 11
36.659
 20
-13.403
 21
-13.178
  0
LINE
  8
0
 10
36.659
 11
36.943
 20
-13.178
 21
-13.034
  0
LINE
  8
0
 10
36.943
 11
37.256
 20
-13.034
 21
-12.984
  0
LINE
  8
0
 10
37.256
 11
37.57
 20
-12.984
 21
-13.034
  0
LINE
  8
0
 10
37.57
 11
37.854
 20
-13.034
 21
-13.178
  0
LINE
  8
0
 10
37.854
 11
38.078
 20
-13.178
 21
-13.403
  0
LINE
  8
0
 10
38.078
 11
38.223
 20
-13.403
 21
-13.686
  0
LINE
  8
0
 10
38.223
 11
38.273
 20
-13.686
 21
-14
  0
LINE
  8
0
 10
38.273
 11
38.223
 20
-14
 21
-14.314
  0
LINE
  8
0
 10
38.223
 11
38.078
 20
-14.314
 21
-14.597
  0
LINE
  8
0
 10
38.078
 11
37.854
 20
-14.597
 21
-14.822
  0
LINE
  8
0
 10
37.854
 11
37.57
 20
-14.822
 21
-14.966
  0
LINE
  8
0
 10
37.57
 11
37.256
 20
-14.966
 21
-15.016
  0
LINE
  8
0
 10
37.256
 11
36.943
 20
-15.016
 21
-14.966
  0
LINE
  8
0
 10
36.943
 11
36.659
 20
-14.966
 21
-14.822
  0
LINE
  8
0
 10
36.659
 11
36.435
 20
-14.822
 21
-14.597
  0
LINE
  8
0
 10
36.435
 11
36.29
 20
-14.597
 21
-14.314
  0
LINE
  8
0
 10
36.29
 11
36.241
 20
-14.314
 21
-14
  0
LINE
  8
0
 10
36.241
 11
36.29
 20
14
 21
14.314
  0
LINE
  8
0
 10
36.29
 11
36.435
 20
14.314
 21
14.597
  0
LINE
  8
0
 10
36.435
 11
36.659
 20
14.597
 21
14.822
  0
LINE
  8
0
 10
36.659
 11
36.943
 20
14.822
 21
14.966
  0
LINE
  8
0
 10
36.943
 11
37.257
 20
14.966
 21
15.016
  0
LINE
  8
0
 10
37.257
 11
37.57
 20
15.016
 21
14.966
  0
LINE
  8
0
 10
37.57
 11
37.854
 20
14.966
 21
14.822
  0
LINE
  8
0
 10
37.854
 11
38.078
 20
14.822
 21
14.597
  0
LINE
  8
0
 10
38.078
 11
38.223
 20
14.597
 21
14.314
  0
LINE
  8
0
 10
38.223
 11
38.273
 20
14.314
 21
14
  0
LINE
  8
0
 10
38.273
 11
38.223
 20
14
 21
13.686
  0
LINE
  8
0
 10
38.223
 11
38.078
 20
13.686
 21
13.403
  0
LINE
  8
0
 10
38.078
 11
37.854
 20
13.403
 21
13.178
  0
LINE
  8
0
 10
37.854
 11
37.57
 20
13.178
 21
13.034
  0
LINE
  8
0
 10
37.57
 11
37.257
 20
13.034
 21
12.984
  0
LINE
  8
0
 10
37.257
 11
36.943
 20
12.984
 21
13.034
  0
LINE
  8
0
 10
36.943
 11
36.659
 20
13.034
 21
13.178
  0
LINE
  8
0
 10
36.659
 11
36.435
 20
13.178
 21
13.403
  0
LINE
  8
0
 10
36.435
 11
36.29
 20
13.403
 21
13.686
  0
LINE
  8
0
 10
36.29
 11
36.241
 20
13.686
 21
14
  0
ENDSEC
  0
SECTION
  2
OBJECTS
  0
DICTIONARY
  0
ENDSEC
  0
EOF
