  0
SECTION
  2
BLOCKS
  0
ENDSEC
  0
SECTION
  2
ENTITIES
  0
LINE
  8
0
 10
-39.726
 11
-39.624
 20
-14
 21
-13.354
  0
LINE
  8
0
 10
-39.624
 11
-39.327
 20
-13.354
 21
-12.772
  0
LINE
  8
0
 10
-39.327
 11
-38.865
 20
-12.772
 21
-12.309
  0
LINE
  8
0
 10
-38.865
 11
-38.282
 20
-12.309
 21
-12.012
  0
LINE
  8
0
 10
-38.282
 11
-37.637
 20
-12.012
 21
-11.91
  0
LINE
  8
0
 10
-37.637
 11
-36.991
 20
-11.91
 21
-12.012
  0
LINE
  8
0
 10
-36.991
 11
-36.408
 20
-12.012
 21
-12.309
  0
LINE
  8
0
 10
-36.408
 11
-35.946
 20
-12.309
 21
-12.772
  0
LINE
  8
0
 10
-35.946
 11
-35.649
 20
-12.772
 21
-13.354
  0
LINE
  8
0
 10
-35.649
 11
-35.546
 20
-13.354
 21
-14
  0
LINE
  8
0
 10
-35.546
 11
-35.649
 20
-14
 21
-14.646
  0
LINE
  8
0
 10
-35.649
 11
-35.946
 20
-14.646
 21
-15.228
  0
LINE
  8
0
 10
-35.946
 11
-36.408
 20
-15.228
 21
-15.691
  0
LINE
  8
0
 10
-36.408
 11
-36.991
 20
-15.691
 21
-15.988
  0
LINE
  8
0
 10
-36.991
 11
-37.637
 20
-15.988
 21
-16.09
  0
LINE
  8
0
 10
-37.637
 11
-38.282
 20
-16.09
 21
-15.988
  0
LINE
  8
0
 10
-38.282
 11
-38.865
 20
-15.988
 21
-15.691
  0
LINE
  8
0
 10
-38.865
 11
-39.327
 20
-15.691
 21
-15.228
  0
LINE
  8
0
 10
-39.327
 11
-39.624
 20
-15.228
 21
-14.646
  0
LINE
  8
0
 10
-39.624
 11
-39.726
 20
-14.646
 21
-14
  0
LINE
  8
0
 10
-39.726
 11
-39.624
 20
14
 21
14.646
  0
LINE
  8
0
 10
-39.624
 11
-39.327
 20
14.646
 21
15.228
  0
LINE
  8
0
 10
-39.327
 11
-38.865
 20
15.228
 21
15.691
  0
LINE
  8
0
 10
-38.865
 11
-38.282
 20
15.691
 21
15.988
  0
LINE
  8
0
 10
-38.282
 11
-37.636
 20
15.988
 21
16.09
  0
LINE
  8
0
 10
-37.636
 11
-36.991
 20
16.09
 21
15.988
  0
LINE
  8
0
 10
-36.991
 11
-36.408
 20
15.988
 21
15.691
  0
LINE
  8
0
 10
-36.408
 11
-35.946
 20
15.691
 21
15.228
  0
LINE
  8
0
 10
-35.946
 11
-35.649
 20
15.228
 21
14.646
  0
LINE
  8
0
 10
-35.649
 11
-35.546
 20
14.646
 21
14
  0
LINE
  8
0
 10
-35.546
 11
-35.649
 20
14
 21
13.354
  0
LINE
  8
0
 10
-35.649
 11
-35.946
 20
13.354
 21
12.772
  0
LINE
  8
0
 10
-35.946
 11
-36.408
 20
12.772
 21
12.309
  0
LINE
  8
0
 10
-36.408
 11
-36.991
 20
12.309
 21
12.012
  0
LINE
  8
0
 10
-36.991
 11
-37.636
 20
12.012
 21
11.91
  0
LINE
  8
0
 10
-37.636
 11
-38.282
 20
11.91
 21
12.012
  0
LINE
  8
0
 10
-38.282
 11
-38.865
 20
12.012
 21
12.309
  0
LINE
  8
0
 10
-38.865
 11
-39.327
 20
12.309
 21
12.772
  0
LINE
  8
0
 10
-39.327
 11
-39.624
 20
12.772
 21
13.354
  0
LINE
  8
0
 10
-39.624
 11
-39.726
 20
13.354
 21
14
  0
LINE
  8
0
 10
-32.226
 11
-32.124
 20
-14
 21
-13.354
  0
LINE
  8
0
 10
-32.124
 11
-31.827
 20
-13.354
 21
-12.772
  0
LINE
  8
0
 10
-31.827
 11
-31.365
 20
-12.772
 21
-12.309
  0
LINE
  8
0
 10
-31.365
 11
-30.782
 20
-12.309
 21
-12.012
  0
LINE
  8
0
 10
-30.782
 11
-30.136
 20
-12.012
 21
-11.91
  0
LINE
  8
0
 10
-30.136
 11
-29.491
 20
-11.91
 21
-12.012
  0
LINE
  8
0
 10
-29.491
 11
-28.908
 20
-12.012
 21
-12.309
  0
LINE
  8
0
 10
-28.908
 11
-28.446
 20
-12.309
 21
-12.772
  0
LINE
  8
0
 10
-28.446
 11
-28.149
 20
-12.772
 21
-13.354
  0
LINE
  8
0
 10
-28.149
 11
-28.046
 20
-13.354
 21
-14
  0
LINE
  8
0
 10
-28.046
 11
-28.149
 20
-14
 21
-14.646
  0
LINE
  8
0
 10
-28.149
 11
-28.446
 20
-14.646
 21
-15.228
  0
LINE
  8
0
 10
-28.446
 11
-28.908
 20
-15.228
 21
-15.691
  0
LINE
  8
0
 10
-28.908
 11
-29.491
 20
-15.691
 21
-15.988
  0
LINE
  8
0
 10
-29.491
 11
-30.136
 20
-15.988
 21
-16.09
  0
LINE
  8
0
 10
-30.136
 11
-30.782
 20
-16.09
 21
-15.988
  0
LINE
  8
0
 10
-30.782
 11
-31.365
 20
-15.988
 21
-15.691
  0
LINE
  8
0
 10
-31.365
 11
-31.827
 20
-15.691
 21
-15.228
  0
LINE
  8
0
 10
-31.827
 11
-32.124
 20
-15.228
 21
-14.646
  0
LINE
  8
0
 10
-32.124
 11
-32.226
 20
-14.646
 21
-14
  0
LINE
  8
0
 10
-32.226
 11
-32.124
 20
14
 21
14.646
  0
LINE
  8
0
 10
-32.124
 11
-31.827
 20
14.646
 21
15.228
  0
LINE
  8
0
 10
-31.827
 11
-31.365
 20
15.228
 21
15.691
  0
LINE
  8
0
 10
-31.365
 11
-30.782
 20
15.691
 21
15.988
  0
LINE
  8
0
 10
-30.782
 11
-30.136
 20
15.988
 21
16.09
  0
LINE
  8
0
 10
-30.136
 11
-29.491
 20
16.09
 21
15.988
  0
LINE
  8
0
 10
-29.491
 11
-28.908
 20
15.988
 21
15.691
  0
LINE
  8
0
 10
-28.908
 11
-28.446
 20
15.691
 21
15.228
  0
LINE
  8
0
 10
-28.446
 11
-28.149
 20
15.228
 21
14.646
  0
LINE
  8
0
 10
-28.149
 11
-28.046
 20
14.646
 21
14
  0
LINE
  8
0
 10
-28.046
 11
-28.149
 20
14
 21
13.354
  0
LINE
  8
0
 10
-28.149
 11
-28.446
 20
13.354
 21
12.772
  0
LINE
  8
0
 10
-28.446
 11
-28.908
 20
12.772
 21
12.309
  0
LINE
  8
0
 10
-28.908
 11
-29.491
 20
12.309
 21
12.012
  0
LINE
  8
0
 10
-29.491
 11
-30.136
 20
12.012
 21
11.91
  0
LINE
  8
0
 10
-30.136
 11
-30.782
 20
11.91
 21
12.012
  0
LINE
  8
0
 10
-30.782
 11
-31.365
 20
12.012
 21
12.309
  0
LINE
  8
0
 10
-31.365
 11
-31.827
 20
12.309
 21
12.772
  0
LINE
  8
0
 10
-31.827
 11
-32.124
 20
12.772
 21
13.354
  0
LINE
  8
0
 10
-32.124
 11
-32.226
 20
13.354
 21
14
  0
LINE
  8
0
 10
-41.387
 11
-41.386
 20
-20
 21
20
  0
LINE
  8
0
 10
-41.386
 11
-26.386
 20
20
 21
20
  0
LINE
  8
0
 10
-26.386
 11
-26.386
 20
20
 21
6.74
  0
LINE
  8
0
 10
-26.386
 11
26.386
 20
6.74
 21
6.74
  0
LINE
  8
0
 10
26.386
 11
26.386
 20
6.74
 21
20
  0
LINE
  8
0
 10
26.386
 11
41.387
 20
20
 21
20
  0
LINE
  8
0
 10
41.387
 11
41.386
 20
20
 21
-20
  0
LINE
  8
0
 10
41.386
 11
26.386
 20
-20
 21
-20
  0
LINE
  8
0
 10
26.386
 11
26.386
 20
-20
 21
-6.74
  0
LINE
  8
0
 10
26.386
 11
-26.386
 20
-6.74
 21
-6.74
  0
LINE
  8
0
 10
-26.386
 11
-26.386
 20
-6.74
 21
-20
  0
LINE
  8
0
 10
-26.386
 11
-41.387
 20
-20
 21
-20
  0
LINE
  8
0
 10
28.046
 11
28.149
 20
-14
 21
-13.354
  0
LINE
  8
0
 10
28.149
 11
28.446
 20
-13.354
 21
-12.772
  0
LINE
  8
0
 10
28.446
 11
28.908
 20
-12.772
 21
-12.309
  0
LINE
  8
0
 10
28.908
 11
29.491
 20
-12.309
 21
-12.012
  0
LINE
  8
0
 10
29.491
 11
30.136
 20
-12.012
 21
-11.91
  0
LINE
  8
0
 10
30.136
 11
30.782
 20
-11.91
 21
-12.012
  0
LINE
  8
0
 10
30.782
 11
31.365
 20
-12.012
 21
-12.309
  0
LINE
  8
0
 10
31.365
 11
31.827
 20
-12.309
 21
-12.772
  0
LINE
  8
0
 10
31.827
 11
32.124
 20
-12.772
 21
-13.354
  0
LINE
  8
0
 10
32.124
 11
32.226
 20
-13.354
 21
-14
  0
LINE
  8
0
 10
32.226
 11
32.124
 20
-14
 21
-14.646
  0
LINE
  8
0
 10
32.124
 11
31.827
 20
-14.646
 21
-15.228
  0
LINE
  8
0
 10
31.827
 11
31.365
 20
-15.228
 21
-15.691
  0
LINE
  8
0
 10
31.365
 11
30.782
 20
-15.691
 21
-15.988
  0
LINE
  8
0
 10
30.782
 11
30.136
 20
-15.988
 21
-16.09
  0
LINE
  8
0
 10
30.136
 11
29.491
 20
-16.09
 21
-15.988
  0
LINE
  8
0
 10
29.491
 11
28.908
 20
-15.988
 21
-15.691
  0
LINE
  8
0
 10
28.908
 11
28.446
 20
-15.691
 21
-15.228
  0
LINE
  8
0
 10
28.446
 11
28.149
 20
-15.228
 21
-14.646
  0
LINE
  8
0
 10
28.149
 11
28.046
 20
-14.646
 21
-14
  0
LINE
  8
0
 10
28.046
 11
28.149
 20
14
 21
14.646
  0
LINE
  8
0
 10
28.149
 11
28.446
 20
14.646
 21
15.228
  0
LINE
  8
0
 10
28.446
 11
28.908
 20
15.228
 21
15.691
  0
LINE
  8
0
 10
28.908
 11
29.491
 20
15.691
 21
15.988
  0
LINE
  8
0
 10
29.491
 11
30.136
 20
15.988
 21
16.09
  0
LINE
  8
0
 10
30.136
 11
30.782
 20
16.09
 21
15.988
  0
LINE
  8
0
 10
30.782
 11
31.365
 20
15.988
 21
15.691
  0
LINE
  8
0
 10
31.365
 11
31.827
 20
15.691
 21
15.228
  0
LINE
  8
0
 10
31.827
 11
32.124
 20
15.228
 21
14.646
  0
LINE
  8
0
 10
32.124
 11
32.226
 20
14.646
 21
14
  0
LINE
  8
0
 10
32.226
 11
32.124
 20
14
 21
13.354
  0
LINE
  8
0
 10
32.124
 11
31.827
 20
13.354
 21
12.772
  0
LINE
  8
0
 10
31.827
 11
31.365
 20
12.772
 21
12.309
  0
LINE
  8
0
 10
31.365
 11
30.782
 20
12.309
 21
12.012
  0
LINE
  8
0
 10
30.782
 11
30.136
 20
12.012
 21
11.91
  0
LINE
  8
0
 10
30.136
 11
29.491
 20
11.91
 21
12.012
  0
LINE
  8
0
 10
29.491
 11
28.908
 20
12.012
 21
12.309
  0
LINE
  8
0
 10
28.908
 11
28.446
 20
12.309
 21
12.772
  0
LINE
  8
0
 10
28.446
 11
28.149
 20
12.772
 21
13.354
  0
LINE
  8
0
 10
28.149
 11
28.046
 20
13.354
 21
14
  0
LINE
  8
0
 10
35.546
 11
35.649
 20
-14
 21
-13.354
  0
LINE
  8
0
 10
35.649
 11
35.946
 20
-13.354
 21
-12.772
  0
LINE
  8
0
 10
35.946
 11
36.408
 20
-12.772
 21
-12.309
  0
LINE
  8
0
 10
36.408
 11
36.991
 20
-12.309
 21
-12.012
  0
LINE
  8
0
 10
36.991
 11
37.636
 20
-12.012
 21
-11.91
  0
LINE
  8
0
 10
37.636
 11
38.282
 20
-11.91
 21
-12.012
  0
LINE
  8
0
 10
38.282
 11
38.865
 20
-12.012
 21
-12.309
  0
LINE
  8
0
 10
38.865
 11
39.327
 20
-12.309
 21
-12.772
  0
LINE
  8
0
 10
39.327
 11
39.624
 20
-12.772
 21
-13.354
  0
LINE
  8
0
 10
39.624
 11
39.726
 20
-13.354
 21
-14
  0
LINE
  8
0
 10
39.726
 11
39.624
 20
-14
 21
-14.646
  0
LINE
  8
0
 10
39.624
 11
39.327
 20
-14.646
 21
-15.228
  0
LINE
  8
0
 10
39.327
 11
38.865
 20
-15.228
 21
-15.691
  0
LINE
  8
0
 10
38.865
 11
38.282
 20
-15.691
 21
-15.988
  0
LINE
  8
0
 10
38.282
 11
37.636
 20
-15.988
 21
-16.09
  0
LINE
  8
0
 10
37.636
 11
36.991
 20
-16.09
 21
-15.988
  0
LINE
  8
0
 10
36.991
 11
36.408
 20
-15.988
 21
-15.691
  0
LINE
  8
0
 10
36.408
 11
35.946
 20
-15.691
 21
-15.228
  0
LINE
  8
0
 10
35.946
 11
35.649
 20
-15.228
 21
-14.646
  0
LINE
  8
0
 10
35.649
 11
35.546
 20
-14.646
 21
-14
  0
LINE
  8
0
 10
35.546
 11
35.649
 20
14
 21
14.646
  0
LINE
  8
0
 10
35.649
 11
35.946
 20
14.646
 21
15.228
  0
LINE
  8
0
 10
35.946
 11
36.408
 20
15.228
 21
15.691
  0
LINE
  8
0
 10
36.408
 11
36.991
 20
15.691
 21
15.988
  0
LINE
  8
0
 10
36.991
 11
37.637
 20
15.988
 21
16.09
  0
LINE
  8
0
 10
37.637
 11
38.282
 20
16.09
 21
15.988
  0
LINE
  8
0
 10
38.282
 11
38.865
 20
15.988
 21
15.691
  0
LINE
  8
0
 10
38.865
 11
39.327
 20
15.691
 21
15.228
  0
LINE
  8
0
 10
39.327
 11
39.624
 20
15.228
 21
14.646
  0
LINE
  8
0
 10
39.624
 11
39.726
 20
14.646
 21
14
  0
LINE
  8
0
 10
39.726
 11
39.624
 20
14
 21
13.354
  0
LINE
  8
0
 10
39.624
 11
39.327
 20
13.354
 21
12.772
  0
LINE
  8
0
 10
39.327
 11
38.865
 20
12.772
 21
12.309
  0
LINE
  8
0
 10
38.865
 11
38.282
 20
12.309
 21
12.012
  0
LINE
  8
0
 10
38.282
 11
37.637
 20
12.012
 21
11.91
  0
LINE
  8
0
 10
37.637
 11
36.991
 20
11.91
 21
12.012
  0
LINE
  8
0
 10
36.991
 11
36.408
 20
12.012
 21
12.309
  0
LINE
  8
0
 10
36.408
 11
35.946
 20
12.309
 21
12.772
  0
LINE
  8
0
 10
35.946
 11
35.649
 20
12.772
 21
13.354
  0
LINE
  8
0
 10
35.649
 11
35.546
 20
13.354
 21
14
  0
ENDSEC
  0
SECTION
  2
OBJECTS
  0
DICTIONARY
  0
ENDSEC
  0
EOF
